<?xml version="1.0" standalone="no"?>
<!DOCTYPE svg PUBLIC "-//W3C//DTD SVG 20010904//EN"
 "http://www.w3.org/TR/2001/REC-SVG-20010904/DTD/svg10.dtd">
<svg version="1.0" xmlns="http://www.w3.org/2000/svg"
 width="1708.000000pt" height="1708.000000pt" viewBox="0 0 1708.000000 1708.000000"
 preserveAspectRatio="xMidYMid meet">
<metadata>
Created by potrace 1.14, written by Peter Selinger 2001-2017
</metadata>
<g transform="translate(0.000000,1708.000000) scale(0.100000,-0.100000)"
fill="#000000" stroke="none">
<path d="M6747 15865 c-42 -40 -32 -48 25 -18 43 22 48 28 32 34 -28 11 -27
11 -57 -16z"/>
<path d="M6765 15820 c-10 -11 -24 -20 -32 -20 -7 0 -16 -8 -19 -17 -18 -52
-30 -72 -49 -77 -15 -4 -17 -8 -8 -17 14 -14 4 -26 -38 -48 -25 -12 -26 -14
-12 -42 11 -21 18 -26 33 -21 24 9 93 99 85 111 -3 5 0 13 6 17 8 4 7 9 -2 15
-12 7 -12 9 0 9 7 0 11 6 8 13 -2 7 8 26 24 41 16 16 29 35 29 43 0 18 -4 17
-25 -7z"/>
<path d="M8040 15651 c0 -4 -11 -6 -25 -3 -14 2 -25 0 -25 -7 0 -6 -11 -8 -28
-5 -27 6 -29 4 -27 -30 0 -21 -4 -35 -10 -32 -5 2 -9 9 -7 17 2 7 0 24 -3 38
-5 18 -9 21 -14 12 -6 -10 -14 -10 -27 -3 -13 7 -25 7 -37 0 -10 -5 -24 -7
-31 -5 -8 3 -19 0 -25 -6 -6 -6 -11 -7 -11 -2 0 5 -7 0 -15 -11 -10 -15 -22
-20 -40 -17 -14 3 -25 9 -25 14 0 5 -7 9 -15 9 -16 0 -36 -39 -28 -52 2 -5 -3
-8 -11 -8 -9 0 -16 -5 -16 -11 0 -7 -18 -9 -49 -6 -52 5 -74 14 -67 25 2 4 -9
7 -24 7 -16 0 -27 -2 -24 -4 2 -2 -4 -10 -14 -17 -13 -9 -19 -9 -24 -1 -6 9
-10 9 -17 -1 -4 -8 -11 -13 -15 -13 -18 3 -18 0 -2 -12 15 -11 12 -12 -24 -12
-23 0 -45 -6 -49 -14 -7 -11 -10 -11 -14 0 -5 11 -8 10 -17 -4 -9 -14 -15 -15
-31 -6 -12 6 -32 8 -47 3 -15 -4 -31 -8 -37 -9 -5 0 -9 -7 -7 -14 2 -8 -4 -10
-17 -6 -11 3 -28 1 -38 -4 -10 -6 -65 -22 -123 -36 -100 -24 -130 -41 -130
-72 0 -7 -17 -15 -39 -19 -36 -6 -39 -8 -28 -25 7 -11 17 -19 24 -19 19 0 17
-8 -25 -89 -38 -74 -64 -103 -79 -87 -4 4 0 12 10 17 22 13 22 35 0 48 -16 9
-16 10 5 11 12 0 22 5 22 10 0 6 -11 10 -25 10 -14 0 -25 4 -25 10 0 5 12 7
28 4 20 -4 30 0 40 16 11 17 10 26 -5 50 -17 30 -33 34 -41 12 -2 -7 4 -12 13
-12 9 0 14 -4 10 -9 -3 -5 3 -12 12 -14 16 -4 16 -5 1 -6 -9 0 -20 4 -23 9 -9
15 -25 12 -25 -4 0 -7 -8 -16 -18 -18 -10 -3 -19 -12 -19 -21 0 -8 -7 -31 -17
-51 -9 -20 -14 -41 -11 -47 4 -5 1 -17 -6 -25 -10 -13 -10 -20 0 -36 11 -18
11 -22 -4 -31 -14 -8 -15 -11 -4 -18 11 -7 11 -9 -1 -9 -22 0 -40 20 -33 36 3
8 0 14 -7 14 -6 0 -8 5 -5 10 4 6 1 18 -6 26 -9 11 -9 18 -1 26 6 6 8 17 5 24
-3 8 0 21 7 29 7 8 10 22 6 30 -3 8 -1 15 3 15 5 0 8 8 6 18 -2 9 -4 20 -4 23
-1 4 -12 10 -26 13 -14 4 -25 13 -25 21 0 20 9 19 33 -2 19 -17 20 -17 15 10
-3 15 -2 27 2 27 11 0 33 57 27 72 -3 9 -7 7 -13 -7 -10 -26 -44 -62 -44 -48
0 7 7 19 16 28 15 14 15 17 1 33 -11 12 -13 22 -7 32 7 10 10 11 10 3 0 -7 5
-13 10 -13 19 0 37 24 32 42 -3 12 1 18 12 18 10 0 14 5 11 10 -3 6 -2 10 3
10 5 0 9 7 9 15 0 9 -10 15 -24 15 -14 0 -23 -6 -23 -16 0 -14 -1 -14 -16 0
-22 23 -54 4 -54 -32 -1 -15 -7 -38 -15 -52 -17 -29 -20 -80 -5 -80 12 0 13
-37 1 -44 -4 -3 -6 -17 -3 -31 3 -18 -1 -30 -14 -40 -11 -8 -16 -15 -12 -15 4
0 3 -12 -2 -26 -6 -15 -6 -32 -1 -42 10 -19 -7 -41 -26 -35 -6 2 -14 -1 -18
-6 -3 -6 -14 -11 -23 -11 -13 0 -14 2 -4 8 19 13 3 42 -22 42 -12 0 -33 10
-45 21 -30 28 -112 70 -123 62 -5 -3 0 -12 12 -20 16 -11 19 -18 11 -26 -8 -8
-3 -18 16 -35 l28 -24 -27 16 c-17 10 -29 12 -33 6 -3 -6 1 -10 9 -10 9 0 16
-4 16 -10 0 -5 7 -10 15 -10 8 0 15 -4 15 -10 0 -13 37 -13 45 0 10 16 35 -8
28 -26 -3 -8 3 -16 13 -20 40 -13 62 -27 106 -69 l46 -43 -24 -12 c-17 -9 -21
-17 -15 -29 5 -9 6 -22 3 -30 -3 -10 2 -13 22 -9 18 4 26 1 26 -9 0 -8 5 -11
10 -8 6 3 10 -3 10 -14 0 -11 -4 -22 -9 -25 -11 -7 -63 19 -55 27 4 3 -6 9
-22 13 -15 4 -43 18 -63 31 -19 13 -41 21 -48 19 -7 -3 -15 -1 -18 4 -4 6 -21
9 -38 9 -23 -1 -26 -3 -10 -6 19 -4 21 -8 13 -29 -7 -18 -6 -24 4 -24 7 0 19
-6 26 -14 6 -8 21 -17 33 -19 12 -2 -30 -2 -93 0 -112 4 -250 29 -250 45 0 4
5 9 10 9 6 1 15 3 20 4 6 1 15 3 20 4 6 0 10 5 10 11 0 5 -13 7 -30 3 -24 -4
-29 -3 -25 9 8 20 -40 28 -172 28 l-102 0 -123 -60 c-68 -34 -145 -73 -173
-87 -27 -14 -91 -47 -141 -73 -51 -26 -105 -57 -122 -68 -16 -12 -33 -22 -37
-22 -8 0 -100 -74 -125 -100 -38 -39 -42 -48 -30 -71 10 -18 10 -21 -3 -16
-22 8 -91 -19 -95 -37 -2 -9 1 -16 6 -16 6 0 8 -9 5 -21 -3 -11 -11 -18 -18
-15 -14 5 -39 -9 -41 -24 -1 -5 -2 -14 -3 -20 0 -5 -6 -10 -12 -10 -18 0 -74
-51 -74 -69 0 -9 -9 -16 -22 -16 -13 0 -22 -4 -21 -10 4 -28 11 -45 19 -45 5
0 9 -4 9 -10 0 -5 -10 -10 -22 -10 -26 0 -50 -13 -49 -26 2 -20 -11 -44 -23
-44 -15 0 -41 -54 -39 -81 1 -10 -6 -21 -16 -24 -18 -6 -41 -45 -41 -70 0 -8
-5 -15 -11 -15 -5 0 -15 -13 -20 -30 -6 -16 -17 -30 -25 -30 -16 0 -47 -56
-39 -70 3 -6 -1 -10 -9 -10 -18 0 -46 -38 -46 -63 0 -11 -11 -32 -25 -49 -27
-32 -32 -58 -12 -59 6 0 2 -4 -10 -9 -30 -12 -33 -60 -4 -60 42 0 52 -58 16
-93 -8 -8 -12 -16 -10 -18 2 -3 -17 -4 -41 -3 -25 1 -43 -1 -39 -4 3 -3 -2
-17 -11 -31 -12 -17 -14 -26 -6 -29 20 -6 13 -22 -9 -22 -11 0 -18 -4 -15 -9
4 -5 1 -22 -4 -37 -6 -16 -18 -75 -26 -132 -8 -58 -16 -107 -18 -111 -14 -22
-89 -323 -102 -405 -22 -152 -29 -283 -14 -301 7 -8 8 -15 3 -15 -6 0 -7 -20
-2 -52 13 -82 18 -98 33 -98 21 0 40 -28 28 -42 -8 -12 -8 -37 1 -127 2 -21
-4 -27 -36 -36 -21 -6 -42 -17 -47 -25 -12 -20 -12 -684 0 -715 11 -29 -15
-64 -33 -46 -15 15 -24 14 -31 -5 -3 -8 -2 -12 4 -9 6 4 10 -7 10 -25 0 -23 6
-33 24 -40 25 -9 76 -90 76 -122 0 -19 37 -105 91 -210 16 -31 29 -73 29 -92
0 -19 5 -38 10 -41 6 -3 10 -14 10 -23 0 -9 10 -40 22 -69 18 -41 27 -51 41
-47 9 3 17 1 17 -5 0 -6 -7 -11 -15 -11 -19 0 -19 -19 0 -44 8 -11 15 -28 15
-38 0 -11 16 -35 35 -55 25 -25 33 -42 29 -55 -3 -11 3 -43 14 -71 11 -29 36
-113 57 -187 39 -143 79 -256 123 -355 50 -111 111 -166 127 -115 18 57 98
-22 90 -89 -4 -29 -35 -76 -35 -52 0 7 -56 11 -170 11 l-169 0 -12 40 -12 40
-81 0 c-45 0 -87 -4 -95 -9 -25 -16 -12 -222 29 -466 5 -27 11 -75 15 -106 6
-52 4 -56 -19 -69 -14 -7 -23 -17 -20 -22 3 -4 -2 -8 -10 -8 -9 0 -16 -4 -16
-10 0 -5 6 -7 14 -4 8 3 17 1 21 -5 3 -6 -1 -11 -9 -11 -9 0 -16 -7 -16 -15 0
-8 9 -15 20 -15 11 0 20 7 20 15 0 8 6 15 14 15 11 0 16 -27 21 -117 17 -300
37 -488 56 -525 5 -10 9 -27 9 -38 0 -30 28 -80 45 -80 8 0 15 5 15 10 0 6 6
10 13 10 23 0 47 35 47 68 0 18 -4 32 -10 32 -19 0 -10 18 11 23 20 5 21 10
15 59 -4 29 -11 57 -16 63 -5 6 -7 20 -4 32 3 11 1 24 -5 27 -6 4 -11 20 -11
36 0 16 -7 35 -14 43 -8 8 -15 23 -15 33 0 11 -5 39 -11 64 -6 25 -13 54 -14
65 -1 11 -8 33 -15 49 -16 40 -6 69 22 60 12 -3 24 -6 27 -6 36 -1 50 4 50 17
0 8 7 15 15 15 8 0 15 7 15 15 0 8 7 15 15 15 20 0 19 11 -2 49 -19 32 -38 40
-46 19 -2 -7 -2 0 1 16 5 33 -16 116 -30 116 -9 0 -23 -10 -59 -42 -30 -28
-39 -22 -39 27 0 34 -4 45 -15 45 -12 0 -13 4 -6 18 5 10 10 77 10 148 -1 206
-7 183 53 179 28 -2 54 -8 57 -12 11 -17 86 -31 144 -28 31 2 57 1 57 -3 0 -4
15 -9 33 -10 17 -1 37 -9 44 -18 15 -21 150 -23 137 -2 -3 4 4 8 15 8 15 0 33
-28 82 -125 34 -68 71 -132 81 -142 19 -17 21 -17 50 0 17 10 31 16 32 15 1
-2 12 -23 23 -48 42 -87 62 -139 74 -184 16 -64 30 -73 82 -54 62 22 70 58 29
140 -31 63 -51 136 -49 173 2 22 -25 146 -50 235 -26 90 -31 120 -22 120 14 0
11 21 -10 86 -11 33 -21 79 -22 103 -2 24 -9 45 -15 48 -7 3 -10 11 -7 19 3 8
2 22 -3 32 -12 28 -15 57 -20 282 -2 118 -10 240 -16 270 -7 30 -11 87 -9 126
1 44 -2 75 -8 79 -14 8 -14 142 -1 150 8 5 7 12 -2 23 -10 12 -10 16 0 19 8 3
12 32 12 95 0 76 4 96 24 131 14 24 27 66 30 97 3 30 10 88 16 129 6 41 17
151 26 245 14 156 30 271 33 238 2 -28 20 1 27 44 3 25 13 51 20 59 8 7 14 22
15 32 0 10 8 43 18 73 10 30 17 67 15 83 -2 18 2 27 10 27 8 0 16 7 19 15 5
10 -4 16 -30 21 l-35 7 5 47 c5 44 27 121 65 235 l17 50 105 5 c101 5 157 21
175 49 9 16 36 1 46 -26 l9 -23 287 2 288 3 5 75 c5 68 9 82 52 150 63 101
128 180 218 266 l74 72 41 -31 c22 -17 110 -103 195 -191 175 -181 410 -416
417 -416 2 0 22 -18 44 -40 22 -22 46 -40 54 -40 8 0 15 -9 15 -20 0 -11 7
-20 15 -20 8 0 23 -9 32 -20 10 -11 22 -20 29 -20 6 0 19 -10 30 -21 23 -26
94 -60 108 -52 5 3 6 2 3 -4 -13 -22 146 -84 204 -79 34 3 42 0 46 -15 8 -28
45 -25 41 3 -2 11 2 23 9 25 8 3 11 -6 10 -24 -2 -28 -2 -28 58 -28 33 0 79 7
103 16 38 14 50 14 95 2 68 -17 111 -17 104 0 -3 8 1 14 9 14 8 0 14 -6 14
-14 0 -8 13 -14 33 -14 17 -1 62 -3 100 -4 46 -2 67 0 67 8 0 9 2 9 8 0 5 -8
13 -8 30 1 l23 12 -23 21 c-16 14 -42 23 -83 27 -33 3 -76 10 -95 16 -43 12
-40 13 -40 -6 0 -8 -5 -12 -10 -9 -6 4 -8 10 -5 15 8 13 -218 55 -237 44 -4
-3 -8 -1 -8 4 0 5 -22 12 -50 16 -88 12 -58 28 45 24 52 -1 95 -6 95 -10 0 -4
8 -7 18 -7 26 0 49 -6 63 -17 25 -20 51 -24 66 -12 16 13 144 18 136 6 -2 -5
7 -8 21 -8 14 0 26 -6 26 -12 0 -10 25 -13 93 -12 50 0 137 -4 192 -8 247 -21
378 -5 388 48 3 19 -1 27 -17 34 -13 4 -24 3 -28 -4 -6 -8 -8 -7 -8 2 0 6 -8
12 -17 12 -12 0 -4 13 28 44 47 48 56 69 58 129 1 22 6 38 14 38 6 1 23 3 37
4 175 20 311 12 405 -24 27 -10 104 -36 170 -56 66 -21 143 -49 172 -62 28
-13 55 -23 60 -23 4 0 56 -25 116 -54 92 -47 204 -124 215 -148 2 -5 7 -8 12
-8 10 0 140 -132 140 -142 0 -5 5 -8 10 -8 6 0 10 7 10 15 0 8 5 15 10 15 6 0
8 -13 5 -29 -4 -24 5 -41 55 -102 33 -41 68 -74 78 -74 30 0 46 150 21 197
-12 22 -12 22 12 7 13 -9 26 -25 28 -35 1 -11 9 -26 16 -34 7 -8 30 -87 50
-175 21 -88 44 -180 52 -204 17 -51 55 -88 100 -97 29 -6 33 -10 38 -53 4 -25
8 -58 11 -72 4 -20 0 -28 -15 -32 -17 -4 -19 -12 -16 -48 1 -24 8 -56 14 -71
6 -16 7 -28 3 -28 -4 0 1 -5 11 -11 12 -7 17 -23 17 -58 0 -67 10 -111 26
-111 16 0 20 -6 28 -46 5 -24 1 -36 -18 -59 -17 -20 -22 -31 -14 -36 8 -5 9
-12 2 -21 -6 -8 -7 -48 -2 -108 4 -52 8 -105 9 -117 1 -13 6 -20 12 -16 5 3 7
2 4 -3 -3 -5 -8 -52 -12 -104 -3 -52 -8 -117 -10 -145 -3 -27 -7 -84 -11 -125
-3 -41 -9 -120 -14 -175 -7 -95 -1 -133 20 -120 19 12 16 -22 -4 -45 -15 -17
-16 -20 -3 -11 13 11 21 11 29 3 8 -8 7 -13 -6 -18 -10 -4 -22 -18 -28 -33
-12 -29 -14 -122 -4 -140 4 -6 3 -11 -2 -11 -16 0 -19 -80 -5 -92 18 -14 16
-25 -6 -47 -18 -18 -18 -19 20 -14 27 4 39 2 39 -7 0 -8 -8 -10 -25 -6 -23 6
-25 4 -20 -17 4 -15 1 -28 -9 -36 -8 -7 -12 -19 -9 -27 6 -16 -23 -54 -42 -54
-20 0 -24 -37 -18 -135 3 -49 6 -99 6 -110 1 -11 8 -26 16 -33 9 -8 10 -11 4
-7 -22 11 -15 -27 9 -52 14 -15 19 -27 12 -31 -26 -18 -39 -98 -16 -107 9 -3
10 -10 3 -23 -5 -10 -7 -43 -4 -73 3 -30 5 -64 5 -76 0 -13 4 -23 9 -23 5 0 9
7 9 15 0 8 5 15 11 15 6 0 8 -9 3 -22 -4 -13 -8 -31 -8 -40 0 -10 -6 -18 -13
-18 -7 0 -13 -5 -13 -11 0 -5 4 -8 9 -4 15 9 22 -12 8 -23 -18 -15 -15 -171 4
-183 8 -5 20 -7 27 -4 6 2 12 0 12 -6 0 -6 -8 -9 -17 -8 -43 4 -53 -1 -53 -27
0 -21 4 -24 20 -19 11 4 20 2 20 -4 0 -6 -3 -11 -8 -11 -10 0 -32 -73 -24 -80
4 -3 7 -22 8 -43 0 -21 6 -42 14 -47 7 -4 9 -13 6 -19 -4 -6 -12 -9 -17 -6 -5
4 -9 -3 -9 -15 0 -11 7 -23 16 -27 13 -5 13 -7 2 -14 -22 -14 -13 -147 12
-174 20 -22 27 -45 12 -45 -4 0 -9 -29 -10 -65 -1 -38 -8 -74 -17 -88 -8 -13
-12 -26 -9 -29 3 -4 0 -16 -6 -28 -7 -13 -8 -26 -2 -33 12 -16 15 -77 3 -77
-5 0 -11 6 -14 13 -3 9 -10 7 -23 -6 -17 -15 -17 -19 -4 -28 11 -8 12 -12 3
-16 -7 -2 -13 -11 -13 -19 0 -8 -7 -14 -15 -14 -9 0 -15 -9 -15 -25 0 -14 -8
-29 -20 -35 -27 -14 -25 -38 3 -43 20 -3 20 -5 -10 -18 -24 -11 -30 -18 -23
-29 6 -8 10 -10 10 -5 0 6 4 3 9 -5 14 -21 4 -30 -31 -30 -25 0 -29 -3 -25
-20 3 -11 -1 -26 -8 -34 -7 -7 -19 -33 -25 -57 -7 -24 -19 -48 -27 -54 -9 -6
-17 -22 -18 -36 -2 -13 -6 -31 -9 -40 -5 -10 1 -20 16 -27 23 -12 22 -12 -4
-7 -15 3 -30 1 -33 -5 -3 -5 3 -10 14 -10 16 0 21 -6 21 -25 0 -19 -4 -23 -17
-19 -10 4 -4 -4 12 -16 28 -20 28 -21 5 -14 -51 15 -65 12 -81 -20 -15 -27
-15 -33 -2 -53 15 -22 14 -23 -16 -23 -17 0 -31 -4 -31 -10 0 -5 9 -10 19 -10
11 0 23 -5 26 -10 9 -15 -14 -40 -31 -33 -8 3 -14 -1 -14 -11 0 -9 -6 -16 -14
-16 -7 0 -19 -6 -25 -14 -13 -16 4 -26 44 -26 32 0 41 -18 19 -35 -16 -12 -19
-12 -22 1 -2 8 -10 14 -18 14 -11 0 -13 -6 -9 -20 4 -14 2 -20 -8 -20 -8 0
-17 -7 -21 -15 -3 -8 -12 -15 -21 -15 -8 0 -15 -7 -15 -16 0 -10 6 -14 15 -10
8 3 15 1 15 -4 0 -5 8 -11 18 -13 9 -3 1 -5 -18 -4 -50 1 -80 -11 -80 -33 0
-10 -6 -25 -14 -33 -12 -12 -11 -16 10 -32 31 -23 30 -30 -3 -33 -42 -3 -59
-40 -23 -49 32 -8 23 -30 -15 -36 -41 -7 -69 -31 -61 -52 3 -8 1 -17 -3 -20
-11 -6 -2 -45 10 -45 4 0 1 -19 -7 -42 -8 -23 -12 -48 -10 -55 4 -8 -3 -13
-17 -13 -17 0 -19 -2 -7 -10 18 -11 6 -25 -15 -16 -12 4 -14 12 -9 28 l6 23
-26 -24 c-23 -22 -24 -25 -9 -36 14 -11 14 -12 -6 -18 -13 -3 -21 -13 -21 -26
0 -12 -6 -21 -15 -21 -8 0 -15 -5 -15 -11 0 -6 -7 -9 -15 -5 -8 3 -15 0 -15
-7 0 -7 -16 -23 -36 -36 -29 -20 -37 -22 -44 -11 -7 11 -11 11 -24 1 -9 -7
-13 -17 -10 -22 3 -5 -6 -9 -20 -9 -13 0 -38 -12 -55 -26 -17 -14 -31 -21 -31
-15 0 19 -15 12 -25 -11 -6 -13 -20 -24 -32 -26 -13 -2 -23 -9 -23 -17 0 -8
-7 -11 -20 -8 -13 4 -20 0 -20 -10 0 -9 -18 -20 -46 -28 -26 -8 -49 -20 -51
-26 -3 -7 -18 -13 -34 -13 -16 0 -29 -4 -29 -9 0 -5 -9 -13 -20 -16 -11 -3
-20 -13 -20 -21 0 -8 -9 -14 -20 -14 -11 0 -20 -6 -20 -14 0 -8 -9 -18 -20
-21 -11 -3 -20 -12 -20 -18 0 -7 -4 -6 -10 3 -6 9 -10 10 -10 3 0 -23 -32 -45
-57 -38 -14 3 -31 1 -39 -6 -8 -6 -23 -9 -33 -6 -13 3 -21 -1 -24 -13 -3 -10
-25 -24 -55 -34 -42 -14 -62 -31 -62 -52 0 -2 7 -4 15 -4 8 0 15 -4 15 -10 0
-5 -9 -10 -20 -10 -11 0 -20 5 -20 11 0 12 -43 1 -48 -12 -2 -5 -10 -9 -18 -9
-8 0 -14 -4 -14 -10 0 -5 -5 -10 -11 -10 -5 0 -7 5 -3 11 4 7 -6 5 -22 -3 -29
-15 -65 -31 -114 -50 -14 -6 -43 -18 -65 -29 -22 -10 -73 -20 -113 -23 -41 -3
-80 -10 -87 -16 -7 -6 -21 -7 -34 -2 -21 8 -128 -10 -229 -37 -28 -8 -48 -9
-55 -3 -7 6 -23 9 -37 7 -14 -1 -38 -3 -55 -4 -23 -1 -26 -4 -15 -11 21 -13
11 -18 -45 -21 -79 -4 -98 -1 -92 15 5 11 -1 14 -26 10 -18 -3 -72 4 -121 14
-77 16 -90 22 -93 40 -1 12 1 22 6 22 5 0 12 15 15 34 4 19 12 37 19 40 7 4
-8 4 -33 1 -32 -4 -41 -2 -30 5 8 5 11 10 5 10 -5 0 -4 4 3 9 10 6 7 10 -13
15 -18 5 -25 12 -21 22 4 11 0 13 -18 8 -17 -4 -30 1 -44 17 -17 18 -28 21
-58 16 -42 -7 -67 11 -58 40 5 15 4 16 -5 3 -7 -10 -13 -12 -18 -4 -14 19 -43
25 -43 9 0 -21 -6 -19 -39 15 -20 21 -31 27 -34 18 -4 -10 -6 -10 -6 0 -1 6
-7 12 -15 12 -8 0 -17 6 -19 13 -4 9 -8 8 -16 -3 -9 -13 -11 -13 -11 2 0 11
-5 15 -14 12 -10 -4 -16 5 -21 28 -4 18 -14 38 -23 44 -18 13 -122 17 -122 4
0 -6 -10 -10 -22 -10 -12 0 -18 3 -15 6 11 11 -13 44 -32 44 -10 0 -28 9 -40
19 -12 11 -33 18 -46 17 -16 -2 -25 3 -28 16 -4 15 -12 18 -36 15 -23 -4 -31
-1 -31 9 0 9 -4 13 -10 9 -10 -6 -113 43 -118 57 -2 4 -21 11 -42 14 -21 4
-41 12 -44 20 -3 7 -19 20 -36 29 -30 16 -64 41 -102 78 -10 9 -22 17 -28 17
-16 0 -275 262 -287 291 -9 20 -21 28 -55 34 -26 4 -37 9 -28 13 22 10 24 52
2 53 -14 0 -14 2 3 9 11 5 15 9 8 9 -7 1 -23 12 -36 25 -22 22 -28 32 -38 61
-3 12 -15 26 -47 61 -13 13 -30 45 -39 69 -11 33 -20 45 -35 45 -11 0 -16 4
-13 11 4 6 -2 13 -13 16 -16 4 -19 11 -17 34 3 22 0 29 -13 30 -14 0 -13 2 3
9 18 7 19 8 3 15 -10 4 -18 13 -18 21 0 8 -9 19 -20 26 -14 9 -20 24 -20 53
-1 31 -6 44 -26 58 -21 16 -27 17 -41 5 -9 -7 -14 -8 -10 -2 3 6 -1 23 -9 38
-18 36 -18 36 6 36 11 0 20 7 20 15 0 8 -6 15 -12 15 -10 0 -9 3 1 9 11 7 9
10 -8 16 -11 3 -26 3 -33 -1 -8 -5 -9 -2 -5 9 4 11 1 17 -8 17 -8 0 -15 7 -15
16 0 10 6 14 14 11 11 -4 12 2 6 30 -7 30 -6 34 8 29 15 -5 15 -5 2 6 -25 21
-50 66 -50 90 0 12 -9 31 -20 43 -19 20 -31 56 -33 93 0 13 -55 13 -63 0 -3
-5 -10 -6 -15 -2 -13 8 9 34 28 34 8 0 37 22 64 49 49 49 54 67 24 97 -13 14
-35 7 -35 -12 0 -8 -4 -14 -10 -14 -5 0 -10 19 -10 43 0 46 -13 77 -24 58 -12
-18 -23 -13 -30 15 -4 16 -19 31 -39 39 -19 8 -25 14 -14 15 9 0 17 5 17 10 0
7 6 7 20 0 16 -9 20 -8 21 7 2 27 4 143 3 143 0 0 -14 -11 -30 -25 -16 -14
-35 -25 -41 -25 -8 0 -13 -15 -13 -40 0 -33 -3 -40 -20 -40 -18 0 -19 5 -13
60 4 50 3 60 -10 60 -8 0 -22 3 -31 6 -13 5 -16 -1 -16 -30 0 -20 5 -36 10
-36 6 0 10 -9 10 -20 0 -11 -6 -20 -14 -20 -8 0 -13 8 -12 17 0 10 -7 19 -16
21 -21 4 -25 -24 -5 -31 9 -3 9 -7 -1 -20 -11 -13 -10 -19 8 -37 14 -14 20
-30 18 -45 -4 -17 0 -25 16 -29 36 -10 48 -7 42 9 -5 13 -2 14 15 5 22 -12 19
-41 -7 -71 -8 -9 -18 -36 -23 -60 -5 -24 -9 -38 -10 -31 -1 6 -10 12 -20 12
-11 0 -23 5 -26 10 -3 6 -16 10 -28 9 -12 0 -16 -3 -9 -6 6 -2 12 -11 12 -19
0 -8 7 -14 16 -14 25 0 6 -18 -34 -31 -20 -6 -39 -15 -42 -20 -9 -14 -91 -14
-99 0 -7 10 -13 11 -31 1 -12 -6 -25 -9 -28 -5 -3 3 4 8 16 12 20 5 32 33 14
33 -5 0 -18 18 -31 40 -12 22 -28 40 -34 40 -9 0 -9 2 0 8 21 13 -16 82 -44
82 -16 0 -23 6 -23 20 0 11 -4 20 -10 20 -5 0 -10 -4 -10 -9 0 -5 -13 -11 -29
-13 -26 -4 -29 -2 -25 20 3 15 1 21 -6 17 -6 -4 -22 1 -35 9 -14 9 -25 12 -25
6 0 -5 -5 -10 -11 -10 -5 0 -7 5 -4 10 14 22 -6 50 -36 50 -22 0 -29 5 -29 20
0 11 -7 20 -15 20 -8 0 -15 8 -15 18 0 10 -7 27 -15 38 -15 20 -20 66 -8 78
14 14 13 50 -1 58 -8 5 -13 14 -10 22 3 7 -1 18 -8 24 -18 14 -83 -41 -74 -63
9 -25 -12 -17 -48 16 -20 20 -46 33 -66 36 -19 2 -36 7 -39 12 -4 5 -23 16
-43 24 -20 9 -47 27 -59 41 -13 14 -28 26 -35 26 -7 0 -14 10 -16 23 -2 15
-10 22 -28 24 -43 2 -45 3 -32 11 9 6 7 14 -8 30 -27 29 -47 28 -52 -2 -3 -17
0 -23 11 -22 11 1 18 -10 21 -36 5 -41 31 -78 55 -78 8 0 15 -4 15 -9 0 -5 15
-8 33 -7 23 1 31 -3 29 -13 -6 -26 7 -59 25 -63 11 -3 23 -23 32 -51 7 -26 19
-47 26 -47 19 0 39 -27 24 -32 -9 -3 -9 -9 -1 -24 7 -12 11 -14 12 -5 0 8 3
11 8 7 8 -8 9 -14 11 -52 0 -14 5 -23 10 -19 5 3 12 -3 16 -14 3 -10 21 -35
39 -54 18 -19 40 -51 50 -71 9 -19 21 -38 25 -41 5 -3 12 -18 16 -35 4 -19 11
-27 20 -24 8 4 38 -19 73 -55 46 -47 66 -61 88 -61 48 0 58 13 30 39 -13 13
-27 34 -30 47 -4 15 -11 21 -21 18 -8 -4 -15 -1 -15 5 0 6 -9 11 -20 11 -11 0
-20 7 -20 15 0 8 -7 15 -16 15 -8 0 -13 4 -9 9 3 5 1 12 -4 15 -5 3 -7 14 -4
24 2 10 -2 24 -11 31 -8 7 -12 19 -9 27 6 15 33 20 33 5 0 -5 12 -12 28 -17
20 -5 22 -8 10 -11 -16 -4 -16 -6 -2 -29 9 -13 24 -24 34 -24 19 0 34 -25 24
-41 -3 -5 2 -12 10 -15 9 -3 13 -10 10 -15 -6 -10 53 -69 69 -69 4 0 7 -6 7
-14 0 -8 9 -18 20 -21 11 -3 20 -11 20 -16 0 -5 21 -9 48 -9 52 0 78 -12 68
-29 -4 -6 -2 -11 3 -11 6 0 10 -5 9 -12 -4 -17 33 -23 43 -6 5 7 6 20 3 30 -7
23 5 28 83 33 37 2 93 10 123 18 115 30 110 30 110 3 0 -30 48 -147 66 -162 8
-6 11 -14 7 -17 -3 -4 -1 -7 6 -7 7 0 9 -4 6 -10 -3 -5 2 -35 11 -66 16 -56
16 -56 50 -51 42 7 46 -11 4 -19 -23 -5 -28 -10 -21 -23 4 -9 13 -41 20 -73
10 -46 16 -57 36 -62 13 -3 31 -3 39 0 9 3 16 1 16 -5 0 -6 -9 -11 -20 -11
-13 0 -20 -7 -20 -20 0 -11 6 -20 13 -20 9 0 9 -2 -1 -8 -9 -6 -6 -12 11 -21
18 -9 23 -20 21 -44 -4 -47 5 -74 27 -80 19 -5 27 -37 9 -37 -5 0 -10 -4 -10
-10 0 -5 7 -10 16 -10 13 0 14 -3 5 -14 -17 -20 -4 -41 34 -55 36 -13 46 -37
21 -47 -12 -4 -10 -10 6 -26 16 -16 18 -22 7 -29 -10 -6 -8 -9 9 -9 14 0 35
-13 50 -30 15 -16 32 -30 39 -30 7 0 10 -7 7 -15 -3 -8 4 -34 17 -59 22 -44
42 -61 60 -50 5 3 9 1 9 -5 0 -5 -6 -12 -12 -15 -10 -5 -10 -7 0 -12 20 -9 15
-37 -5 -29 -39 16 -54 17 -69 4 -14 -11 -14 -13 0 -21 9 -5 16 -18 16 -28 0
-43 284 -351 358 -389 21 -11 44 -26 50 -34 7 -8 32 -27 57 -43 25 -15 45 -32
45 -36 0 -4 7 -8 15 -8 8 0 28 -13 43 -30 16 -16 34 -30 40 -30 6 0 26 -13 44
-29 18 -15 43 -31 56 -35 12 -4 22 -11 22 -16 0 -13 100 -81 110 -75 6 4 10 1
10 -6 0 -7 3 -10 6 -6 11 11 65 -15 60 -29 -3 -7 5 -20 17 -29 18 -12 19 -17
8 -24 -7 -5 -10 -14 -7 -20 4 -6 1 -17 -7 -25 -9 -9 -13 -30 -10 -58 13 -157
17 -272 13 -328 l-5 -65 -15 33 -15 33 -115 -3 -115 -3 -3 -55 c-2 -30 1 -90
8 -132 11 -72 11 -80 -9 -122 -18 -37 -47 -139 -85 -298 -3 -16 -12 -28 -19
-28 -44 0 -96 -108 -148 -305 -55 -208 -60 -239 -57 -382 l3 -136 123 -43 c67
-23 147 -48 178 -54 30 -6 80 -25 111 -41 30 -16 63 -29 73 -29 42 0 48 -9 37
-53 -24 -104 -80 -303 -87 -312 -4 -5 -25 -59 -45 -120 -57 -167 -47 -155
-124 -155 -39 0 -75 -6 -86 -13 -26 -18 -94 -34 -175 -42 -78 -8 -176 -28
-328 -66 -120 -31 -141 -39 -161 -63 -32 -38 -90 -56 -179 -56 -103 0 -162
-16 -270 -70 l-77 -40 -175 0 c-170 0 -177 -1 -247 -29 -40 -17 -97 -46 -127
-65 -114 -73 -208 -109 -526 -204 -161 -48 -191 -56 -208 -53 -8 1 -19 -2 -25
-7 -7 -6 -61 -22 -122 -37 -60 -15 -115 -32 -122 -37 -10 -8 -95 -33 -143 -42
-46 -8 -106 -32 -113 -44 -5 -7 -21 -12 -35 -11 -15 2 -41 -5 -59 -14 -18 -9
-40 -17 -50 -17 -10 0 -31 -7 -47 -15 -15 -8 -34 -15 -40 -15 -6 0 -30 -10
-51 -21 -33 -17 -67 -23 -185 -29 -80 -5 -185 -15 -235 -23 -49 -9 -126 -21
-170 -27 -44 -7 -105 -21 -135 -31 -78 -28 -112 -37 -219 -54 -73 -12 -103
-22 -136 -46 -23 -17 -48 -32 -56 -34 -40 -9 -58 -18 -53 -26 3 -5 0 -9 -6 -9
-6 0 -8 -5 -4 -11 8 -14 -23 -224 -58 -384 -10 -46 -14 -75 -22 -177 -2 -21
-9 -44 -16 -53 -10 -12 -10 -15 3 -15 16 0 13 -14 -15 -88 -4 -13 -5 -28 -2
-34 4 -7 2 -8 -4 -4 -8 5 -11 0 -8 -16 1 -13 -1 -36 -6 -53 -16 -53 -26 -115
-18 -110 5 3 2 -16 -6 -43 -8 -26 -12 -58 -9 -70 4 -15 2 -21 -5 -17 -5 3 -10
3 -11 -2 0 -4 -2 -16 -4 -27 -2 -10 -1 -24 2 -32 4 -12 987 -14 6694 -14
l6689 0 0 33 c0 19 -3 37 -7 40 -4 4 -7 26 -9 50 -1 23 -11 98 -22 167 -11 69
-26 163 -32 210 -7 47 -27 148 -45 225 -18 77 -43 187 -55 245 -12 58 -25 112
-27 120 -3 8 -7 25 -9 37 -1 12 -9 37 -17 55 -8 18 -27 76 -42 128 -15 52 -32
100 -37 107 -5 7 -7 17 -3 22 3 6 -8 53 -25 106 -26 78 -38 100 -68 125 -21
17 -44 29 -52 28 -8 -1 -31 3 -50 9 -19 7 -78 15 -130 19 -52 4 -120 15 -151
25 -43 13 -107 19 -270 24 -177 6 -224 10 -274 27 -41 14 -104 23 -200 28
-166 10 -365 34 -455 54 -62 14 -333 54 -509 76 -47 5 -175 33 -285 61 -147
37 -227 52 -296 56 -52 2 -133 13 -180 23 -47 11 -135 24 -195 29 -61 6 -124
14 -140 19 -17 5 -75 13 -130 17 -63 4 -116 14 -145 26 -56 25 -249 49 -396
49 -102 0 -112 2 -132 23 -39 41 -75 137 -83 222 -5 44 -13 130 -19 190 -16
157 -39 299 -61 380 -28 102 -26 108 27 136 74 38 76 49 77 479 1 376 0 382
-44 530 -20 68 -22 91 -18 250 2 96 4 224 3 283 0 104 -1 109 -27 135 l-28 27
-162 0 c-136 0 -167 -3 -195 -18 -18 -10 -36 -15 -41 -12 -5 2 -12 47 -16 97
-4 51 -12 102 -18 113 -6 11 -10 33 -9 49 2 17 -2 53 -8 80 -5 28 -17 87 -26
131 -9 44 -19 90 -21 103 -4 18 -11 22 -37 20 -68 -4 -98 1 -92 17 3 8 -2 19
-11 24 -13 7 -7 10 25 16 22 3 53 17 67 31 14 13 28 24 31 24 15 0 154 164
154 182 0 4 -10 9 -22 9 -16 1 -12 4 10 8 23 4 39 16 54 39 l21 33 -38 -7
c-27 -5 -36 -4 -31 5 4 6 16 11 26 11 12 0 17 6 16 17 -2 10 13 32 31 50 19
17 32 36 29 41 -3 6 1 13 10 16 23 9 26 8 18 -6 -6 -10 -3 -9 8 0 20 16 25 40
33 152 6 76 9 87 33 108 23 19 25 24 12 33 -12 9 -13 10 0 7 7 -3 26 7 41 22
36 34 139 198 139 221 0 10 6 24 13 31 17 16 37 74 30 82 -4 3 -1 6 5 6 7 0
19 17 28 38 30 72 103 298 115 357 6 33 22 89 35 125 36 102 100 314 134 445
42 162 45 170 58 167 7 -1 12 3 12 9 0 6 -8 9 -19 6 -14 -3 -17 0 -14 14 3 11
12 19 21 19 12 0 13 3 4 12 -7 7 -12 24 -12 39 0 15 -5 31 -10 34 -8 5 -8 11
0 20 9 10 6 19 -9 34 -12 12 -21 32 -21 46 0 14 -4 25 -8 25 -5 0 -19 54 -32
119 -13 66 -27 118 -31 115 -4 -2 -10 31 -14 74 -3 42 -13 105 -21 140 -8 35
-14 83 -14 108 0 24 -4 44 -10 44 -5 0 -10 19 -10 43 0 23 -4 78 -10 122 -5
44 -14 133 -18 198 -6 76 -13 122 -21 127 -10 5 -9 9 3 13 13 5 15 37 15 218
0 116 2 214 5 217 3 3 6 0 6 -6 0 -17 31 -44 46 -38 10 4 13 -16 12 -92 -1
-53 2 -107 6 -119 9 -29 41 -38 86 -23 36 12 39 16 68 104 16 50 33 102 36
116 3 16 21 34 46 48 22 12 40 28 40 36 0 7 11 18 25 24 24 11 25 10 25 -25 0
-46 21 -62 71 -53 49 9 89 35 89 59 0 16 7 19 38 17 46 -3 72 9 72 33 0 19 24
44 54 55 10 3 16 12 13 20 -7 18 25 46 54 46 5 0 8 4 4 9 -3 6 8 20 25 32 16
13 30 28 30 34 0 7 11 21 25 31 14 10 25 24 25 31 0 7 4 13 9 13 5 0 16 16 26
36 14 29 21 35 38 30 12 -3 25 -6 30 -6 4 0 7 -6 7 -14 0 -8 18 -23 39 -33 22
-10 45 -29 51 -43 20 -41 38 -109 32 -115 -4 -3 -2 -9 4 -13 16 -11 44 -60 44
-77 0 -8 7 -15 15 -15 8 0 15 -7 15 -15 0 -9 9 -35 20 -57 11 -23 20 -49 20
-59 0 -9 9 -19 21 -22 12 -3 18 -10 15 -15 -3 -6 1 -13 10 -16 15 -6 16 -17 9
-79 -4 -39 -8 -88 -9 -107 -1 -19 -6 -45 -10 -58 -5 -14 -3 -29 4 -37 10 -12
9 -15 -6 -15 -16 0 -17 -2 -4 -11 11 -8 12 -12 3 -16 -7 -2 -13 -18 -13 -34 0
-28 -12 -48 -56 -95 -20 -21 -40 -84 -35 -111 1 -7 -3 -13 -9 -13 -5 0 -10 -5
-10 -11 0 -5 5 -7 12 -3 8 5 9 0 4 -17 -9 -31 -14 -52 -15 -61 -1 -5 -10 -8
-21 -8 -14 0 -20 -7 -20 -21 0 -15 5 -19 16 -15 8 3 12 2 9 -4 -3 -6 0 -10 7
-11 7 0 3 -4 -9 -9 -26 -11 -30 -38 -8 -46 17 -7 20 -34 4 -34 -17 0 -49 -40
-49 -60 0 -10 -7 -23 -15 -30 -9 -7 -13 -21 -10 -31 3 -9 1 -20 -5 -24 -5 -3
-10 -27 -10 -52 0 -36 4 -46 20 -50 11 -3 18 -9 15 -13 -3 -5 -1 -11 5 -15 15
-9 12 -55 -3 -55 -16 0 -53 -60 -49 -79 2 -7 -9 -26 -25 -40 -16 -14 -32 -34
-36 -44 -8 -22 -27 -22 -27 1 0 10 -7 27 -15 39 -13 18 -21 45 -24 76 -1 4 -9
7 -19 7 -16 0 -48 37 -45 51 1 3 -10 4 -25 2 -15 -3 -22 -1 -16 4 18 14 25 43
9 43 -18 0 -49 -44 -35 -48 7 -3 4 -13 -7 -26 -10 -11 -14 -18 -9 -13 6 4 16
-7 25 -25 16 -36 18 -45 27 -100 4 -22 12 -38 20 -38 18 0 38 -37 24 -45 -5
-3 -10 -22 -10 -42 0 -30 -3 -35 -20 -30 -12 3 -25 -1 -33 -11 -12 -16 -20
-21 -99 -55 -33 -15 -38 -15 -50 0 -10 12 -10 17 -1 20 8 3 7 10 -5 22 -47 49
-54 63 -41 72 20 14 -17 39 -55 39 -21 0 -27 -3 -17 -9 11 -7 11 -9 0 -13 -10
-3 -14 -25 -14 -76 0 -69 -2 -74 -32 -103 -18 -16 -33 -26 -33 -22 0 4 -4 2
-8 -5 -5 -7 -7 -26 -4 -42 4 -26 9 -30 48 -36 38 -5 44 -10 55 -41 9 -27 14
-32 24 -23 8 7 19 9 25 5 5 -3 10 -1 10 4 0 6 10 11 21 11 18 0 19 2 9 15 -10
13 -9 15 11 16 13 0 18 3 12 6 -7 2 -13 10 -13 17 0 13 62 26 125 26 17 0 53
11 79 24 47 24 48 24 53 5 6 -23 43 -26 43 -4 0 9 6 15 13 14 26 -3 37 2 37
16 0 8 -9 15 -20 15 -35 0 -22 21 58 99 43 42 100 106 126 143 26 37 51 70 56
73 4 3 21 -2 36 -10 33 -17 55 -5 34 20 -7 8 -17 15 -22 15 -5 0 -17 7 -26 16
-15 15 -15 19 1 46 9 16 15 34 12 38 -8 13 13 337 30 482 9 68 27 170 42 227
l26 105 -8 265 c-4 146 -8 289 -9 316 -1 48 -4 53 -64 112 -34 34 -69 76 -76
95 -18 41 -57 82 -103 107 -13 7 -76 11 -160 11 l-139 0 2 29 c3 39 14 71 25
71 14 0 11 28 -4 37 -33 20 -37 84 -9 117 10 10 17 29 17 42 1 18 -4 24 -22
24 -21 0 -22 4 -21 53 1 45 -3 105 -16 222 -2 17 -11 84 -20 150 -18 137 -29
425 -16 425 126 0 257 11 309 26 51 14 75 29 116 69 53 51 65 75 50 108 -10
23 -25 22 -66 -9 -67 -51 -117 -66 -231 -72 -58 -2 -121 -2 -140 2 l-33 6 1
307 c3 516 4 556 21 581 8 13 14 38 13 55 0 18 -3 95 -6 172 -5 137 -6 141
-33 170 -21 22 -30 44 -35 84 -6 47 -20 82 -55 141 -52 86 -80 143 -75 151 7
13 -37 79 -53 79 -6 0 -15 -4 -18 -10 -3 -5 -12 -10 -18 -10 -7 0 -4 7 6 14
18 14 23 46 7 46 -6 0 -16 12 -22 28 -7 15 -19 34 -29 42 -9 8 -26 42 -38 75
-24 70 -18 78 49 70 67 -8 154 -5 165 6 13 13 25 11 25 -4 0 -15 89 -107 102
-107 4 0 8 -5 8 -10 0 -6 34 -42 75 -81 76 -72 172 -131 203 -126 29 6 72 30
67 37 -3 5 2 10 10 14 8 3 15 15 15 26 0 15 -6 20 -22 19 -26 -3 -108 30 -108
43 0 4 -7 8 -15 8 -8 0 -38 25 -67 56 -29 31 -68 71 -87 88 -19 17 -39 37 -45
45 -6 8 -32 36 -58 62 -27 26 -48 53 -48 61 0 8 -10 24 -22 35 -27 24 -58 61
-58 69 0 3 -6 12 -12 19 -7 7 -29 37 -48 65 -19 29 -54 76 -78 106 -44 57 -42
65 11 38 43 -23 230 -23 307 -1 40 11 88 38 93 52 4 8 12 15 19 15 23 0 73 63
87 108 13 48 13 49 -9 52 -35 5 -50 -1 -50 -20 0 -11 -7 -20 -15 -20 -8 0 -15
-5 -15 -11 0 -5 -15 -16 -32 -24 -18 -7 -36 -17 -40 -21 -22 -21 -115 -43
-162 -38 -28 2 -64 6 -81 8 -58 6 -135 31 -210 69 -56 28 -62 34 -104 96 -20
30 -47 70 -60 90 -13 20 -28 38 -33 39 -4 2 -8 10 -8 17 0 7 -4 15 -8 17 -5 2
-30 31 -56 65 -51 68 -100 113 -122 113 -8 0 -14 5 -14 12 0 9 -3 9 -12 0 -17
-17 -33 -15 -19 2 14 17 -22 66 -50 66 -10 0 -19 5 -19 11 0 6 -6 17 -12 24
-30 33 -34 41 -30 54 3 10 -1 13 -14 9 -19 -4 -57 25 -47 36 4 3 -6 6 -20 6
-20 0 -27 5 -27 20 0 17 -4 19 -27 14 -26 -7 -26 -6 -10 16 17 25 6 65 -16 57
-7 -2 -17 2 -24 9 -17 16 -17 27 0 19 6 -4 3 0 -8 9 -31 24 -33 26 -91 115
-30 46 -54 90 -54 97 0 14 72 15 86 1 14 -13 23 -7 17 11 -6 15 -5 15 10 3 9
-7 15 -16 13 -20 -2 -3 7 -12 21 -18 24 -11 24 -11 11 5 -18 19 -13 42 8 42
13 0 15 9 18 66 1 24 -64 28 -81 6 -9 -13 -12 -14 -13 -3 0 10 -10 12 -41 7
-24 -4 -38 -3 -35 3 3 5 -26 12 -64 16 -60 6 -70 10 -70 26 0 17 -9 19 -108
19 -105 0 -160 13 -177 41 -4 5 -14 9 -24 9 -19 0 -82 28 -91 40 -3 4 -19 15
-37 24 -23 12 -34 13 -39 4 -5 -7 -10 -4 -16 11 -5 14 -14 21 -22 18 -8 -3
-20 1 -27 9 -7 8 -17 13 -24 11 -6 -3 -35 6 -65 18 -30 13 -58 21 -63 18 -4
-2 -14 1 -22 7 -9 8 -28 10 -50 6 -26 -5 -35 -4 -33 6 2 8 -6 13 -19 12 -13 0
-23 3 -23 8 0 5 -6 6 -12 1 -30 -18 -59 -13 -84 14 -14 15 -23 22 -19 15 10
-20 -24 -26 -45 -7 -13 12 -27 15 -49 10 -25 -5 -31 -3 -31 10 0 14 -3 15 -15
5 -8 -7 -15 -8 -15 -3 0 6 -11 8 -25 5 -13 -2 -33 -1 -42 3 -10 4 -38 9 -63
11 -25 1 -74 5 -110 8 -171 15 -356 26 -419 26 -49 0 -71 4 -71 12 0 9 -3 9
-11 1 -12 -12 -49 -6 -49 9 0 6 -13 8 -30 6 -16 -3 -30 -1 -30 4 0 12 -73 -2
-81 -15 -4 -5 -12 -6 -18 -3 -6 4 -11 0 -11 -8 0 -9 -7 -16 -16 -16 -12 0 -14
3 -6 13 17 20 -1 39 -31 31 -15 -3 -27 -2 -27 3 0 8 -76 8 -133 0 -15 -2 -30
0 -33 4 -3 5 -19 9 -35 9 -25 0 -29 -3 -24 -19 3 -11 1 -22 -5 -26 -6 -4 -10
4 -10 19 0 19 -4 24 -16 19 -11 -4 -14 -13 -10 -29 5 -17 2 -24 -8 -24 -10 0
-13 7 -11 20 2 11 0 18 -6 15 -5 -4 -12 1 -15 9 -6 17 -24 22 -24 7z m330 -21
c0 -5 -4 -10 -10 -10 -5 0 -10 5 -10 10 0 6 5 10 10 10 6 0 10 -4 10 -10z
m-303 -49 c0 -11 -7 -17 -14 -14 -9 4 -9 8 0 19 16 17 16 17 14 -5z m-1467
-101 c-24 -15 -37 -11 -16 5 11 8 22 12 25 9 3 -3 -1 -9 -9 -14z m3290 -40 c0
-5 -4 -10 -10 -10 -5 0 -10 5 -10 10 0 6 5 10 10 10 6 0 10 -4 10 -10z m-3320
-240 c0 -5 -14 -10 -31 -10 -17 0 -28 4 -24 10 3 6 17 10 31 10 13 0 24 -4 24
-10z m4120 -20 c-8 -5 -19 -10 -25 -10 -5 0 -3 5 5 10 8 5 20 10 25 10 6 0 3
-5 -5 -10z m87 -25 c0 -8 -4 -12 -9 -9 -4 3 -8 9 -8 15 0 5 4 9 8 9 5 0 9 -7
9 -15z m-4087 -25 c0 -5 -4 -10 -10 -10 -5 0 -10 5 -10 10 0 6 5 10 10 10 6 0
10 -4 10 -10z m-220 -284 c0 -3 -4 -8 -10 -11 -5 -3 -10 -1 -10 4 0 6 5 11 10
11 6 0 10 -2 10 -4z m-37 -23 c-7 -2 -19 -2 -25 0 -7 3 -2 5 12 5 14 0 19 -2
13 -5z m-1429 -476 c-11 -12 -28 -34 -37 -49 -10 -16 -23 -28 -30 -27 -9 0 -9
2 0 5 7 3 17 21 23 40 6 19 18 34 26 34 8 0 17 7 21 15 3 9 8 13 11 10 3 -3
-4 -15 -14 -28z m-142 -199 c-18 -19 -22 -20 -22 -6 0 9 8 21 17 27 27 15 29
3 5 -21z m-67 12 c3 -6 -1 -7 -9 -4 -18 7 -21 14 -7 14 6 0 13 -4 16 -10z m45
-43 c0 -2 -13 -15 -28 -30 -21 -20 -29 -23 -29 -12 0 8 6 15 14 15 7 0 13 7
13 15 0 8 7 15 15 15 8 0 15 -1 15 -3z m6540 -72 c5 3 10 -2 10 -13 0 -11 9
-31 20 -45 12 -14 26 -36 33 -49 15 -27 68 -108 82 -125 5 -6 21 -28 35 -48
14 -20 44 -60 68 -90 23 -29 42 -56 42 -59 0 -2 14 -18 30 -34 38 -38 38 -52
0 -52 -18 0 -33 -6 -36 -15 -5 -11 -10 -13 -19 -5 -6 5 -14 8 -17 5 -2 -3 -23
13 -46 35 -23 22 -46 40 -52 40 -5 0 -10 7 -10 16 0 8 -11 30 -25 48 -14 18
-25 40 -25 50 0 9 -7 27 -15 40 -8 13 -15 32 -14 42 4 40 -1 56 -15 51 -10 -4
-13 -1 -10 7 3 7 -1 16 -9 19 -8 3 -17 17 -21 31 -4 15 -17 50 -30 79 -13 28
-27 63 -31 75 -7 23 -6 23 19 7 14 -9 30 -14 36 -10z m140 -65 c0 -5 -4 -10
-10 -10 -5 0 -10 5 -10 10 0 6 5 10 10 10 6 0 10 -4 10 -10z m-7080 -451 c0
-15 -4 -19 -16 -15 -9 3 -21 6 -27 6 -13 1 22 30 35 30 4 0 8 -9 8 -21z m-113
-232 c2 -21 1 -21 -13 -3 -17 24 -18 37 -1 30 7 -2 13 -15 14 -27z m7378 -157
c3 -5 -1 -10 -10 -10 -9 0 -13 5 -10 10 3 6 8 10 10 10 2 0 7 -4 10 -10z
m-7463 -556 c-7 -110 -14 -160 -28 -193 l-19 -43 1 118 c0 75 5 128 13 143 7
12 11 32 8 42 -3 10 -1 19 4 19 6 0 9 6 8 13 -3 17 14 74 18 61 2 -6 0 -78 -5
-160z m4861 -413 c-11 -14 -50 -44 -87 -65 -61 -36 -77 -40 -152 -44 -48 -3
-89 0 -96 5 -7 6 -34 14 -60 17 -26 4 -50 10 -52 14 -5 9 13 11 144 16 92 3
139 15 236 56 24 11 47 18 50 17 3 -1 10 7 16 18 8 14 13 16 16 6 2 -7 -4 -25
-15 -40z m-1633 -51 c0 -5 -5 -10 -11 -10 -5 0 -7 5 -4 10 3 6 8 10 11 10 2 0
4 -4 4 -10z m1640 -141 c0 -10 -4 -19 -9 -19 -12 0 -23 29 -15 41 8 14 24 0
24 -22z m50 1 c0 -5 -2 -10 -4 -10 -3 0 -8 5 -11 10 -3 6 -1 10 4 10 6 0 11
-4 11 -10z m-1423 -16 c-3 -3 -12 -4 -19 -1 -8 3 -5 6 6 6 11 1 17 -2 13 -5z
m767 -89 c3 -8 1 -15 -4 -15 -6 0 -10 7 -10 15 0 8 2 15 4 15 2 0 6 -7 10 -15z
m-4104 -1475 c0 -5 -2 -10 -4 -10 -3 0 -8 5 -11 10 -3 6 -1 10 4 10 6 0 11 -4
11 -10z m25 -60 c3 -5 1 -10 -4 -10 -6 0 -11 5 -11 10 0 6 2 10 4 10 3 0 8 -4
11 -10z m6745 -770 c0 -5 -4 -10 -10 -10 -5 0 -10 5 -10 10 0 6 5 10 10 10 6
0 10 -4 10 -10z m-60 -209 c0 -11 -4 -23 -10 -26 -5 -3 -10 -15 -10 -26 0 -10
-4 -19 -10 -19 -5 0 -8 10 -6 23 3 12 5 32 5 45 1 27 31 30 31 3z m-6253 3
c-3 -3 -12 -4 -19 -1 -8 3 -5 6 6 6 11 1 17 -2 13 -5z m6293 -240 c0 -14 -4
-23 -10 -19 -5 3 -10 15 -10 26 0 10 5 19 10 19 6 0 10 -12 10 -26z m21 -176
c0 -7 2 -32 4 -55 3 -31 0 -43 -13 -48 -9 -3 -18 -1 -20 4 -7 21 -22 11 -22
-14 0 -14 -5 -25 -11 -25 -7 0 -9 9 -5 23 4 18 0 27 -19 37 l-25 13 26 14 c15
7 33 13 40 13 8 0 14 10 14 25 0 25 29 37 31 13z m-6763 -150 c-6 -18 -28 -21
-28 -4 0 9 7 16 16 16 9 0 14 -5 12 -12z m6712 -60 c0 -17 -3 -28 -7 -25 -3 4
-13 1 -22 -5 -12 -10 -12 -8 2 8 9 11 17 28 17 37 0 9 2 17 5 17 3 0 5 -14 5
-32z m50 8 c0 -2 -7 -7 -16 -10 -8 -3 -12 -2 -9 4 6 10 25 14 25 6z m0 -104
c0 -12 -37 -41 -57 -44 -13 -2 -17 2 -15 17 5 28 12 32 22 15 8 -12 10 -12 16
3 6 17 34 24 34 9z m-101 -64 c12 -15 11 -18 -3 -18 -10 0 -16 8 -16 22 0 12
1 19 3 17 1 -2 9 -12 16 -21z m141 13 c0 9 3 10 11 2 15 -15 3 -33 -22 -33
-13 0 -19 7 -19 21 0 18 2 19 15 9 12 -10 15 -10 15 1z m-145 -81 c8 0 15 -7
15 -16 0 -14 -2 -15 -17 -3 -23 18 -33 31 -33 44 1 6 5 2 11 -7 5 -10 17 -18
24 -18z m22 24 c-3 -3 -12 -4 -19 -1 -8 3 -5 6 6 6 11 1 17 -2 13 -5z m63 -14
c-6 -11 -12 -20 -13 -20 -2 0 -3 9 -3 20 0 11 6 20 13 20 11 0 11 -5 3 -20z
m64 -22 c7 -5 4 -8 -6 -8 -12 0 -18 7 -17 23 0 15 2 17 6 7 3 -8 11 -18 17
-22z m-64 -49 c0 -5 -4 -9 -10 -9 -5 0 -10 7 -10 16 0 8 5 12 10 9 6 -3 10
-10 10 -16z m3 -33 c13 4 17 1 17 -14 0 -11 -8 -22 -17 -24 -16 -3 -16 -4 0
-20 23 -22 21 -38 -3 -38 -12 0 -20 -7 -20 -17 0 -9 -3 -13 -6 -10 -4 4 -1 20
6 36 6 16 8 35 4 42 -4 7 -9 25 -10 38 -2 16 0 21 5 13 4 -7 15 -10 24 -6z
m95 -18 c-3 -7 -15 -14 -29 -15 -14 -1 -17 0 -6 3 9 3 17 10 17 15 0 5 5 9 11
9 6 0 9 -6 7 -12z m-21 -44 c-3 -3 -12 -4 -19 -1 -8 3 -5 6 6 6 11 1 17 -2 13
-5z m25 -28 c6 4 6 -1 -1 -14 -7 -14 -17 -18 -31 -15 -23 6 -27 23 -5 23 8 0
15 6 16 13 0 9 2 9 6 -1 2 -6 9 -9 15 -6z m-192 -86 c0 -5 -5 -10 -11 -10 -5
0 -7 5 -4 10 3 6 8 10 11 10 2 0 4 -4 4 -10z m175 -10 c-3 -5 -10 -10 -16 -10
-5 0 -9 5 -9 10 0 6 7 10 16 10 8 0 12 -4 9 -10z m-165 -20 c0 -5 -4 -10 -10
-10 -5 0 -10 5 -10 10 0 6 5 10 10 10 6 0 10 -4 10 -10z m687 -72 c-3 -8 -6
-5 -6 6 -1 11 2 17 5 13 3 -3 4 -12 1 -19z m-518 -45 c-2 -31 -3 -33 -6 -10
-2 15 -9 27 -14 27 -6 0 -7 5 -4 10 13 22 25 8 24 -27z m-59 -3 c0 -11 -7 -20
-15 -20 -8 0 -15 9 -15 20 0 11 7 20 15 20 8 0 15 -9 15 -20z m777 -46 c-3 -3
-12 -4 -19 -1 -8 3 -5 6 6 6 11 1 17 -2 13 -5z m-7412 -14 c3 -5 1 -10 -4 -10
-6 0 -11 5 -11 10 0 6 2 10 4 10 3 0 8 -4 11 -10z m6685 -11 c0 -5 -4 -9 -10
-9 -5 0 -10 7 -10 16 0 8 5 12 10 9 6 -3 10 -10 10 -16z m-165 -69 c-3 -5 -14
-10 -23 -10 -15 0 -15 2 -2 10 20 13 33 13 25 0z m115 -14 c0 -2 -9 -6 -20 -9
-11 -3 -18 -1 -14 4 5 9 34 13 34 5z m-4 -83 c-2 -27 -4 -53 -5 -59 -1 -6 -8
-11 -16 -11 -13 0 -15 10 -11 51 3 28 5 54 5 59 1 4 8 7 16 7 12 0 14 -10 11
-47z m-6256 -223 c0 -5 -5 -10 -11 -10 -5 0 -7 5 -4 10 3 6 8 10 11 10 2 0 4
-4 4 -10z m855 -150 c-3 -5 -10 -10 -16 -10 -5 0 -9 5 -9 10 0 6 7 10 16 10 8
0 12 -4 9 -10z m66 -83 c-13 -13 -26 -3 -16 12 3 6 11 8 17 5 6 -4 6 -10 -1
-17z m-161 -118 c0 -5 -4 -9 -10 -9 -5 0 -10 7 -10 16 0 8 5 12 10 9 6 -3 10
-10 10 -16z m5416 -188 c-16 -6 -19 -19 -20 -86 -1 -53 -5 -80 -14 -83 -6 -2
-10 -8 -7 -12 3 -5 -4 -14 -15 -20 -13 -7 -20 -21 -20 -40 0 -17 -4 -30 -10
-30 -5 0 -12 -11 -16 -25 -3 -14 -10 -25 -15 -25 -5 0 -9 -11 -9 -24 0 -14 -4
-27 -9 -30 -5 -3 -7 -15 -4 -26 4 -14 -2 -23 -18 -30 -20 -9 -65 -90 -62 -110
0 -3 -8 -16 -18 -29 -11 -13 -19 -32 -19 -42 0 -12 -7 -19 -20 -19 -17 0 -20
-7 -20 -47 0 -35 -3 -44 -10 -33 -8 12 -10 9 -10 -12 0 -20 -4 -26 -14 -22 -8
3 -22 1 -32 -4 -19 -10 -54 -5 -54 9 0 5 7 9 16 9 12 0 15 6 11 21 -5 19 -2
21 23 15 23 -4 32 -1 40 14 6 11 8 25 5 30 -3 5 5 14 17 21 22 12 22 12 3 20
-18 7 -18 8 -2 8 22 1 20 39 -3 58 -13 10 -9 12 18 13 21 0 31 4 27 11 -4 6 2
13 14 16 23 6 29 33 7 33 -18 0 -30 31 -16 40 6 4 8 14 4 23 -3 10 -1 17 5 17
7 0 14 -7 17 -15 12 -30 24 -14 22 31 -2 45 13 69 38 60 10 -4 32 46 38 86 1
9 14 27 29 39 16 11 27 29 26 38 -1 9 2 24 6 35 5 10 4 26 -2 34 -10 16 4 62
20 62 4 0 7 6 7 13 0 7 14 13 33 14 23 1 27 -1 13 -6z m-96 -61 c0 -5 -6 -10
-14 -10 -8 0 -18 5 -21 10 -3 6 3 10 14 10 12 0 21 -4 21 -10z m-110 -82 c0
-16 -3 -19 -11 -11 -6 6 -8 16 -5 22 11 17 16 13 16 -11z m-4943 -80 c-3 -8
-6 -5 -6 6 -1 11 2 17 5 13 3 -3 4 -12 1 -19z m4878 -47 c7 -12 -12 -24 -25
-16 -11 7 -4 25 10 25 5 0 11 -4 15 -9z m-4825 -10 c0 -12 -39 -25 -47 -17 -4
3 1 6 11 6 9 0 14 5 11 10 -3 6 1 10 9 10 9 0 16 -4 16 -9z m4870 -41 c0 -5
-7 -10 -16 -10 -8 0 -12 5 -9 10 3 6 10 10 16 10 5 0 9 -4 9 -10z m-160 -470
c0 -5 -4 -10 -10 -10 -5 0 -10 5 -10 10 0 6 5 10 10 10 6 0 10 -4 10 -10z
m-105 -44 c12 -11 12 -15 1 -19 -7 -3 -19 -1 -27 4 -11 7 -11 9 -1 9 7 0 10 5
7 10 -9 15 4 12 20 -4z m24 -90 c-3 -3 -11 5 -18 17 -13 21 -12 21 5 5 10 -10
16 -20 13 -22z m-69 -32 c0 -8 -4 -12 -10 -9 -5 3 -10 10 -10 16 0 5 5 9 10 9
6 0 10 -7 10 -16z m22 -29 c-2 -14 -8 -22 -13 -19 -5 3 -5 14 1 25 14 26 18
24 12 -6z m-4122 -25 c0 -5 -7 -10 -16 -10 -8 0 -12 5 -9 10 3 6 10 10 16 10
5 0 9 -4 9 -10z m4080 -31 c0 -11 -4 -17 -10 -14 -5 3 -10 13 -10 21 0 8 5 14
10 14 6 0 10 -9 10 -21z m-56 -36 c5 -12 9 -14 18 -5 16 16 28 15 28 -2 0 -19
-37 -27 -65 -14 -19 8 -21 13 -12 24 16 18 24 17 31 -3z m-4084 -16 c11 -5 9
-6 -4 -4 -11 1 -21 9 -23 17 -3 10 -2 11 4 4 4 -6 15 -14 23 -17z m207 -179
c-3 -8 -6 -5 -6 6 -1 11 2 17 5 13 3 -3 4 -12 1 -19z m113 -128 c-19 -13 -30
-13 -30 0 0 6 10 10 23 10 18 0 19 -2 7 -10z m3360 -95 c0 -8 -7 -15 -15 -15
-26 0 -18 20 13 29 1 1 2 -6 2 -14z m-3143 -167 c-3 -8 -6 -5 -6 6 -1 11 2 17
5 13 3 -3 4 -12 1 -19z m370 6 c-3 -3 -12 -4 -19 -1 -8 3 -5 6 6 6 11 1 17 -2
13 -5z m13 -99 c6 4 7 -1 3 -11 -6 -16 -7 -15 -20 2 -7 10 -13 25 -12 33 0 10
4 7 10 -7 5 -13 13 -21 19 -17z m3038 -55 c2 -30 7 -59 12 -65 5 -6 13 -29 18
-52 l9 -41 -81 -30 c-189 -71 -219 -84 -303 -127 -123 -64 -167 -89 -173 -96
-13 -15 -53 -30 -67 -25 -25 10 -56 -3 -44 -18 8 -10 -2 -13 -45 -14 -57 -1
-66 11 -14 21 17 4 55 18 86 33 30 14 61 27 67 28 7 1 29 11 49 23 19 11 58
31 85 43 44 21 49 26 45 50 -2 15 1 37 7 48 6 11 64 60 130 110 86 65 121 86
125 76 3 -8 3 -20 0 -27 -3 -8 2 -20 11 -27 8 -7 15 -21 15 -31 0 -11 6 -19
14 -19 17 0 27 26 21 55 -2 11 -4 30 -4 43 -1 13 -5 21 -10 18 -12 -8 -23 22
-15 37 15 26 38 47 48 44 6 -2 12 -28 14 -57z m-2998 29 c0 -5 4 -8 9 -5 14 9
38 -3 38 -19 0 -22 -21 -18 -47 10 -13 14 -18 25 -12 25 7 0 12 -5 12 -11z
m404 -52 c8 -8 10 -20 5 -32 -7 -19 -8 -19 -8 3 -1 12 -5 22 -11 22 -5 0 -10
5 -10 10 0 14 9 13 24 -3z m1696 3 c0 -5 -4 -10 -10 -10 -5 0 -10 5 -10 10 0
6 5 10 10 10 6 0 10 -4 10 -10z m-1723 -42 c-3 -8 -6 -5 -6 6 -1 11 2 17 5 13
3 -3 4 -12 1 -19z m-494 -25 c-23 -4 -33 -23 -13 -23 6 0 10 -7 10 -15 0 -29
-26 -15 -28 15 -2 27 1 30 25 29 24 -2 25 -2 6 -6z m145 -15 c-3 -7 -13 -15
-24 -17 -16 -3 -17 -1 -5 13 16 19 34 21 29 4z m42 8 c0 -2 -7 -6 -15 -10 -8
-3 -15 -1 -15 4 0 6 7 10 15 10 8 0 15 -2 15 -4z m360 -16 c0 -11 -4 -20 -10
-20 -5 0 -10 9 -10 20 0 11 5 20 10 20 6 0 10 -9 10 -20z m151 11 c-7 -5 -17
-15 -22 -22 -6 -10 -9 -8 -9 9 0 16 6 22 23 22 16 0 18 -3 8 -9z m-646 -31 c3
-6 -4 -10 -17 -10 -18 0 -20 2 -8 10 19 12 18 12 25 0z m534 -14 c10 -12 8
-13 -8 -9 -12 3 -21 9 -21 14 0 14 16 11 29 -5z m-431 -287 c47 -28 94 -52
103 -54 10 -2 30 -11 46 -20 15 -9 21 -14 12 -12 -46 14 -150 19 -164 7 -8 -6
-23 -9 -35 -5 -11 3 -20 2 -20 -3 0 -7 -13 -6 -35 0 -27 9 -32 15 -26 27 5 9
12 37 15 64 4 26 9 47 12 47 3 0 44 -23 92 -51z m2202 -59 c-20 -13 -43 -13
-35 0 3 6 16 10 28 10 18 0 19 -2 7 -10z m-467 -135 c-3 -9 -8 -14 -10 -11 -3
3 -2 9 2 15 9 16 15 13 8 -4z m-63 -12 c-25 -9 -48 -20 -51 -25 -3 -5 -43 -11
-89 -14 -46 -3 -88 -8 -94 -11 -7 -4 -8 -3 -1 4 6 6 39 15 75 21 36 7 88 18
115 26 67 20 102 18 45 -1z m-253 -49 c-3 -3 -12 -4 -19 -1 -8 3 -5 6 6 6 11
1 17 -2 13 -5z"/>
<path d="M7590 15600 c-8 -5 -12 -12 -9 -15 4 -3 12 1 19 10 14 17 11 19 -10
5z"/>
<path d="M6577 15593 c-4 -3 -7 -11 -7 -17 0 -6 5 -5 12 2 6 6 9 14 7 17 -3 3
-9 2 -12 -2z"/>
<path d="M7555 15580 c-3 -5 -1 -10 4 -10 6 0 11 5 11 10 0 6 -2 10 -4 10 -3
0 -8 -4 -11 -10z"/>
<path d="M5960 15310 c0 -5 7 -10 16 -10 8 0 12 5 9 10 -3 6 -10 10 -16 10 -5
0 -9 -4 -9 -10z"/>
<path d="M6040 15311 c12 -9 12 -11 -3 -17 -26 -10 -20 -27 8 -22 30 6 34 -7
5 -15 -27 -7 -25 -27 3 -27 12 0 29 -5 37 -11 12 -9 10 -10 -9 -5 -18 3 -21 2
-13 -6 8 -8 24 -9 56 -1 39 9 48 8 61 -7 8 -9 15 -23 15 -31 0 -8 6 -4 16 9 9
14 13 30 8 40 -4 9 -6 22 -5 28 1 12 -26 24 -67 30 -20 2 -22 0 -12 -12 7 -7
20 -14 28 -14 13 0 13 -3 4 -12 -9 -9 -15 -10 -20 -2 -4 6 -15 13 -24 17 -10
3 -15 12 -12 20 7 18 -13 33 -56 41 -25 5 -31 4 -20 -3z"/>
<path d="M6245 14960 c-3 -5 3 -10 14 -10 10 0 28 -3 38 -6 10 -3 7 2 -7 10
-30 18 -37 19 -45 6z"/>
<path d="M6210 14950 c0 -5 5 -10 11 -10 5 0 7 5 4 10 -3 6 -8 10 -11 10 -2 0
-4 -4 -4 -10z"/>
<path d="M6100 14940 c-12 -7 -12 -10 -1 -10 7 0 11 -6 7 -15 -4 -11 1 -15 17
-15 18 0 19 2 7 10 -10 6 -11 10 -2 10 6 0 12 7 12 15 0 17 -18 19 -40 5z"/>
<path d="M4345 13431 c-7 -12 12 -24 25 -16 11 7 4 25 -10 25 -5 0 -11 -4 -15
-9z"/>
<path d="M3928 11235 c2 -14 8 -25 13 -25 5 0 9 -7 9 -15 0 -8 7 -15 15 -15
12 0 12 5 1 31 -18 42 -45 59 -38 24z"/>
<path d="M10545 11132 c-3 -4 -199 -8 -433 -9 -235 -1 -449 -4 -477 -6 -98 -9
-140 -19 -147 -32 -4 -7 -34 -16 -65 -20 -32 -4 -98 -16 -148 -27 -162 -36
-180 -39 -219 -38 -64 1 -78 -19 -70 -109 4 -42 10 -80 15 -85 4 -5 5 -21 2
-36 -3 -20 0 -31 14 -41 21 -17 43 -53 43 -73 0 -21 27 -27 45 -10 11 12 15
12 16 2 0 -7 4 -3 9 9 8 20 16 21 152 25 102 3 157 9 190 21 27 10 85 20 130
23 46 2 133 9 193 14 61 5 164 12 230 16 71 4 123 11 127 18 6 8 8 7 8 -1 0
-10 25 -13 90 -13 55 0 90 4 90 10 0 6 10 15 23 20 20 8 21 9 2 11 -11 1 6 7
39 13 l58 11 89 -88 c48 -49 105 -109 126 -134 54 -64 81 -93 87 -93 3 0 17
-5 33 -12 15 -6 40 -13 56 -15 24 -4 28 0 33 26 4 21 12 31 24 31 37 0 50 12
50 46 0 19 6 37 15 42 29 16 -8 89 -84 167 -79 81 -171 192 -171 206 0 5 7 9
15 9 23 0 21 79 -2 87 -10 4 -21 11 -24 15 -3 5 -32 9 -65 9 -32 0 -65 4 -75
9 -9 5 -20 6 -24 2z"/>
<path d="M10985 11094 c-9 -9 -13 -19 -10 -22 3 -4 10 0 16 8 7 12 11 13 18 2
7 -11 9 -11 14 1 11 29 -13 36 -38 11z"/>
<path d="M7176 10861 c-3 -5 -24 -6 -46 -4 -26 3 -40 1 -40 -7 0 -6 -5 -8 -11
-5 -16 10 -61 -4 -56 -18 3 -7 -5 -13 -20 -13 -26 -2 -54 -31 -46 -50 8 -21
-93 -45 -207 -50 -72 -3 -262 -19 -325 -28 -16 -2 -66 -7 -110 -11 -44 -5 -92
-11 -107 -16 -16 -4 -30 -3 -34 2 -7 12 -43 2 -61 -17 -17 -16 -46 -7 -39 12
3 8 -1 14 -9 14 -8 0 -15 -7 -15 -15 0 -8 -4 -15 -10 -15 -5 0 -10 5 -10 12 0
6 -7 3 -15 -8 -14 -18 -16 -18 -26 -1 -11 19 -39 23 -39 6 0 -5 -8 -9 -18 -7
-24 4 -52 -19 -52 -43 0 -11 -6 -19 -14 -19 -20 0 -46 -39 -46 -70 0 -17 9
-32 28 -44 15 -9 20 -16 12 -13 -14 4 -42 -16 -39 -29 0 -3 -3 -9 -7 -12 -4
-4 -4 -1 0 6 5 8 -1 12 -19 12 -29 0 -43 -23 -26 -44 9 -11 8 -18 -4 -30 -15
-14 -15 -16 -1 -16 13 0 12 -4 -4 -20 -11 -11 -24 -20 -29 -20 -5 0 -11 -10
-13 -22 -2 -13 -9 -22 -15 -21 -6 1 -14 -13 -17 -32 -4 -20 -13 -35 -21 -35
-7 0 -17 -9 -20 -21 -4 -11 -17 -33 -30 -47 -63 -71 -125 -165 -131 -199 -4
-21 -11 -43 -15 -49 -10 -13 -2 -44 12 -44 5 0 9 -9 9 -20 0 -10 8 -23 17 -28
23 -13 71 5 78 29 4 11 15 19 30 19 23 0 159 133 354 344 l82 90 92 1 c127 2
203 14 223 36 13 14 31 19 74 19 56 0 120 15 131 32 3 4 73 13 155 18 177 11
294 27 343 45 56 21 126 28 246 25 152 -4 202 -3 220 4 39 15 -7 120 -57 131
-22 5 -28 12 -28 33 0 38 10 48 51 56 29 5 38 12 42 33 3 16 -1 32 -9 40 -8 8
-14 21 -14 29 0 8 -10 14 -25 14 -18 0 -28 7 -35 25 -5 14 -16 25 -24 25 -8 0
-16 5 -18 11 -2 7 -35 12 -80 14 -42 2 -82 6 -88 10 -7 4 -16 1 -21 -6 -6 -10
-9 -11 -9 -1 0 14 -36 17 -44 3z m154 -21 c0 -5 -7 -10 -16 -10 -8 0 -12 5 -9
10 3 6 10 10 16 10 5 0 9 -4 9 -10z"/>
<path d="M11016 10797 c3 -10 9 -15 12 -12 3 3 0 11 -7 18 -10 9 -11 8 -5 -6z"/>
<path d="M11041 10744 c0 -11 3 -14 6 -6 3 7 2 16 -1 19 -3 4 -6 -2 -5 -13z"/>
<path d="M9960 10318 c-239 -24 -275 -29 -282 -41 -6 -9 -8 -9 -8 1 0 14 -37
17 -42 3 -1 -6 -25 -12 -53 -15 -90 -10 -130 -18 -142 -28 -16 -13 -17 -52 -3
-79 12 -21 56 -26 62 -7 3 8 6 7 10 -3 3 -9 -4 -36 -17 -61 -13 -26 -21 -49
-18 -52 3 -2 -6 -15 -19 -28 -14 -13 -27 -31 -31 -40 -3 -10 -10 -18 -15 -18
-5 0 -15 -13 -22 -30 -7 -16 -19 -30 -27 -30 -15 0 -52 -38 -53 -54 0 -8 -8
-17 -65 -77 -14 -15 -25 -36 -25 -48 0 -12 -8 -25 -17 -28 -36 -14 -50 -35
-55 -85 -1 -10 -6 -18 -10 -18 -18 0 -6 -18 15 -24 13 -3 29 -17 35 -30 10
-21 15 -24 39 -16 70 21 96 42 88 71 -3 8 7 28 23 45 15 16 45 52 67 79 22 28
63 73 90 100 28 28 69 72 91 99 23 27 46 46 52 42 6 -4 14 -23 18 -44 18 -98
83 -182 140 -182 12 0 38 -7 57 -15 25 -10 71 -15 149 -15 99 0 115 2 145 23
42 27 94 111 122 194 34 102 34 103 -56 103 -124 0 -142 10 -103 60 17 22 27
25 100 28 77 4 80 5 74 26 -7 25 -53 66 -74 66 -13 0 -13 1 0 10 8 5 24 7 35
4 38 -10 95 -37 95 -45 0 -4 12 -20 28 -36 15 -15 26 -31 25 -35 -2 -4 1 -8 6
-8 10 0 91 -77 91 -87 0 -9 71 -73 81 -73 5 0 11 -11 15 -25 3 -14 10 -25 14
-25 4 0 10 -9 13 -20 4 -17 10 -20 34 -14 15 4 30 11 31 16 2 4 14 8 27 8 13
0 26 4 29 9 10 15 -26 105 -53 133 -14 15 -35 39 -46 54 -45 61 -109 114 -137
114 -23 0 -68 67 -68 101 0 50 -17 54 -214 54 -100 0 -210 -3 -246 -7z m110
-252 c0 -3 -4 -8 -10 -11 -5 -3 -10 -1 -10 4 0 6 5 11 10 11 6 0 10 -2 10 -4z"/>
<path d="M6842 9996 c-23 -5 -42 -15 -42 -21 0 -9 -11 -12 -37 -8 -35 4 -167
-7 -238 -21 -29 -5 -152 -17 -187 -17 -10 0 -18 -7 -18 -15 0 -11 -6 -13 -20
-9 -10 3 -33 -1 -49 -9 -18 -10 -56 -16 -95 -16 -61 0 -65 -2 -79 -29 -18 -35
-2 -71 40 -90 16 -8 23 -16 16 -18 -7 -3 -13 -11 -13 -19 0 -8 -7 -14 -14 -14
-17 0 -176 -153 -176 -169 0 -6 -7 -11 -16 -11 -10 0 -14 -6 -11 -14 4 -10 1
-13 -9 -9 -7 3 -14 0 -14 -7 0 -7 -18 -31 -41 -53 -37 -38 -42 -40 -54 -24
-13 18 -31 24 -20 7 3 -5 -2 -10 -12 -10 -26 0 -43 -19 -43 -49 0 -33 9 -47
38 -55 12 -4 22 -12 22 -17 0 -5 7 -9 15 -9 8 0 19 -9 25 -20 6 -11 15 -18 21
-15 5 4 7 11 4 16 -4 5 4 9 17 9 29 1 41 10 108 90 30 36 68 79 85 95 16 17
37 40 46 50 9 11 35 36 58 56 l41 36 0 -30 c0 -20 10 -41 27 -59 14 -15 43
-51 63 -80 21 -32 54 -63 81 -78 41 -23 54 -25 179 -25 127 0 137 1 169 24 47
34 84 118 89 204 l4 67 -28 0 c-66 0 -106 13 -116 36 -15 32 6 57 41 50 51
-10 96 -10 95 -1 -1 6 -4 23 -8 39 -7 27 -6 28 21 22 15 -3 49 -10 76 -16 55
-11 52 -9 168 -120 50 -47 102 -90 117 -97 41 -17 153 -139 146 -158 -8 -21
24 -55 51 -55 16 0 25 8 29 25 5 20 -1 32 -29 60 -19 20 -35 40 -35 46 0 12
-12 24 -55 58 -16 12 -31 28 -31 34 -1 7 -2 20 -3 29 0 9 -12 28 -26 40 -18
17 -28 42 -37 92 -13 66 -14 69 -58 93 -59 33 -87 53 -75 53 6 0 -3 9 -20 20
-21 14 -25 20 -12 20 19 0 20 4 11 38 -4 13 -14 22 -26 22 -11 0 -22 8 -25 19
-6 23 -66 31 -131 17z"/>
<path d="M8506 9795 c-3 -8 -12 -15 -21 -15 -9 0 -15 -9 -15 -25 0 -16 6 -25
16 -25 11 0 14 -5 10 -16 -4 -10 -1 -14 6 -11 8 2 13 24 14 55 1 56 -1 61 -10
37z"/>
<path d="M5264 9685 c-4 -8 -10 -12 -15 -9 -5 3 -9 -2 -9 -12 0 -14 2 -15 17
-3 9 8 24 13 34 11 14 -2 17 1 13 12 -8 20 -33 21 -40 1z"/>
<path d="M5288 9643 c6 -2 18 -2 25 0 6 3 1 5 -13 5 -14 0 -19 -2 -12 -5z"/>
<path d="M8522 9629 c-10 -16 -11 -28 -2 -55 6 -19 16 -34 21 -34 5 0 9 -7 9
-15 0 -8 -4 -15 -10 -15 -5 0 -10 -7 -10 -15 0 -8 4 -15 9 -15 5 0 11 -13 15
-30 3 -16 10 -30 16 -30 14 0 12 27 -2 33 -7 3 -1 6 15 6 22 1 27 -3 27 -23 0
-18 -6 -25 -22 -28 -27 -4 -32 -40 -7 -43 12 -2 15 3 12 16 -4 14 0 19 16 19
13 0 19 -4 16 -10 -4 -6 -11 -8 -16 -5 -5 4 -6 -7 -3 -23 4 -17 1 -32 -5 -36
-17 -11 -13 -46 4 -46 9 0 18 -8 21 -17 12 -36 29 -68 42 -76 11 -7 11 -11 0
-24 -11 -14 -11 -15 1 -12 22 8 39 41 24 46 -7 3 -13 16 -13 29 0 25 -24 34
-33 12 -13 -31 -5 41 8 77 17 47 18 58 5 50 -5 -3 -12 7 -16 22 -4 15 -12 31
-18 36 -8 5 -7 10 3 16 7 5 9 11 4 14 -5 4 -8 20 -5 36 4 26 0 32 -24 41 -21
8 -29 8 -36 -2 -5 -8 -7 2 -5 24 1 21 5 38 10 38 4 0 7 7 7 15 0 18 -16 20
-24 3 -3 -7 -4 -1 -1 15 6 33 -14 37 -33 6z"/>
<path d="M5283 9597 c0 -21 4 -27 21 -27 12 0 16 3 10 8 -6 4 -15 16 -21 26
-9 17 -10 16 -10 -7z"/>
<path d="M10445 9600 c-3 -5 1 -10 9 -10 9 0 16 5 16 10 0 6 -4 10 -9 10 -6 0
-13 -4 -16 -10z"/>
<path d="M10383 9568 c-13 -6 -23 -18 -23 -27 0 -13 2 -13 9 -3 4 8 11 13 15
13 24 -3 36 1 36 14 0 17 -6 18 -37 3z"/>
<path d="M9470 9535 c0 -21 35 -37 87 -39 24 -1 47 -6 51 -12 4 -5 17 -11 30
-11 l23 -2 -21 29 c-21 29 -77 49 -99 35 -6 -3 -11 -1 -11 4 0 6 -13 11 -30
11 -20 0 -30 -5 -30 -15z m100 -15 c0 -5 -4 -10 -10 -10 -5 0 -10 5 -10 10 0
6 5 10 10 10 6 0 10 -4 10 -10z"/>
<path d="M5327 9523 c-9 -2 -15 -9 -12 -14 4 -5 -1 -9 -9 -9 -21 0 -16 -23 8
-33 12 -5 17 -14 13 -28 -5 -20 -5 -20 13 -4 11 10 26 15 35 12 22 -9 18 10
-5 23 -14 8 -20 8 -20 0 0 -6 -4 -8 -10 -5 -20 12 -10 35 16 35 23 0 24 2 10
15 -8 8 -16 14 -18 14 -2 -1 -11 -3 -21 -6z"/>
<path d="M8008 9513 c-41 -47 -52 -105 -18 -96 24 6 26 -3 5 -23 -19 -19 -20
-54 -1 -54 21 0 48 30 42 47 -3 8 1 24 9 36 24 34 18 107 -10 107 -6 0 -19 -8
-27 -17z"/>
<path d="M10197 9493 c-12 -11 -8 -23 8 -23 8 0 15 7 15 15 0 16 -12 20 -23 8z"/>
<path d="M11790 9485 c0 -9 -6 -18 -14 -21 -29 -11 -50 -124 -26 -139 6 -3 10
-17 10 -31 0 -19 5 -24 25 -24 30 0 31 9 -25 -180 -32 -105 -41 -126 -59 -128
-12 -2 -21 1 -21 7 0 20 -56 12 -77 -11 -21 -23 -49 -135 -59 -242 -3 -26 -11
-55 -19 -63 -9 -8 -15 -33 -15 -56 0 -23 -5 -60 -11 -82 -11 -38 -13 -53 -17
-126 -2 -23 -6 -30 -17 -25 -11 4 -15 -1 -15 -18 0 -14 5 -26 12 -28 9 -3 7
-15 -6 -42 -20 -41 -20 -41 10 -50 14 -4 27 1 44 19 12 13 27 22 33 18 6 -3 7
-1 3 5 -4 7 -14 12 -22 12 -21 0 -17 18 9 35 19 12 23 22 21 51 -2 20 1 45 7
56 6 11 7 18 2 15 -11 -7 -48 21 -39 30 4 4 11 2 15 -5 12 -19 53 34 82 103
13 33 28 63 34 68 6 4 5 11 -5 17 -13 9 -13 11 0 20 21 14 30 12 30 -4 0 -20
24 -23 122 -18 l87 4 23 58 c21 55 25 58 61 64 47 8 89 28 128 63 51 46 30 92
-43 93 -43 0 -42 -16 -7 159 23 112 24 240 4 298 -8 23 -12 49 -9 57 11 29
-67 32 -123 4 -12 -6 -20 -15 -17 -20 3 -4 -2 -8 -10 -8 -9 0 -16 -4 -16 -10
0 -25 -16 -7 -18 21 -1 17 -7 40 -13 50 -12 23 -59 26 -59 4z"/>
<path d="M9785 9470 c-60 -3 -103 -8 -95 -12 46 -22 79 -30 113 -29 21 2 37
-2 37 -8 0 -15 27 -14 32 0 3 8 42 12 114 14 60 1 117 5 124 11 16 9 21 11 46
13 8 0 13 5 9 11 -6 9 -174 9 -380 0z"/>
<path d="M5400 9306 c0 -9 5 -16 10 -16 6 0 10 4 10 9 0 6 -4 13 -10 16 -5 3
-10 -1 -10 -9z"/>
<path d="M7975 9298 c-4 -13 -8 -31 -9 -41 -1 -10 -8 -22 -16 -27 -13 -8 -12
-11 5 -25 19 -15 19 -15 1 -29 -17 -14 -17 -17 -2 -48 15 -30 15 -34 1 -44
-18 -14 -28 -106 -16 -150 4 -16 4 -46 1 -66 -5 -26 -3 -41 5 -48 9 -8 15 -7
18 2 3 7 6 3 6 -9 1 -13 -4 -23 -9 -23 -7 0 -7 -7 0 -20 16 -30 32 -13 29 31
-2 21 0 41 3 44 7 7 -21 67 -36 77 -7 5 -5 8 6 8 21 0 28 20 15 44 -8 16 -6
18 7 13 13 -5 16 1 16 40 0 31 5 50 17 58 16 12 16 14 0 38 -14 22 -15 29 -2
54 8 15 15 53 17 83 3 53 2 55 -23 58 -20 2 -28 -2 -34 -20z"/>
<path d="M5340 9290 c0 -11 4 -20 9 -20 17 0 19 15 5 28 -12 11 -14 9 -14 -8z"/>
<path d="M5350 9227 c0 -41 25 -62 41 -36 9 16 -5 44 -26 53 -11 4 -15 -1 -15
-17z"/>
<path d="M5420 9215 c12 -15 30 -12 30 6 0 5 -10 9 -21 9 -18 0 -19 -2 -9 -15z"/>
<path d="M4130 9210 c-13 -8 -12 -10 3 -10 9 0 17 5 17 10 0 12 -1 12 -20 0z"/>
<path d="M4809 9189 c-13 -26 -12 -29 16 -29 14 0 34 9 44 19 19 19 18 19 -16
23 -25 3 -37 0 -44 -13z"/>
<path d="M7080 9180 c0 -5 5 -10 11 -10 5 0 7 5 4 10 -3 6 -8 10 -11 10 -2 0
-4 -4 -4 -10z"/>
<path d="M6960 9154 c-25 -8 -57 -12 -73 -8 -32 7 -47 -17 -24 -40 14 -14 57
-18 57 -6 0 11 67 30 84 24 9 -3 16 -2 16 4 0 6 3 17 6 26 7 19 -5 19 -66 0z"/>
<path d="M6082 9124 c-2 -21 2 -25 21 -22 23 3 30 27 12 40 -19 14 -31 8 -33
-18z"/>
<path d="M6176 9131 c-7 -11 0 -15 18 -12 5 1 6 -5 3 -14 -4 -8 -2 -15 3 -15
5 0 18 -10 30 -22 l20 -22 0 22 c0 27 13 28 36 5 10 -10 27 -19 38 -20 12 -1
41 -6 66 -12 25 -6 107 -11 183 -11 138 -1 167 5 167 35 0 7 20 15 50 19 41 6
50 10 50 27 0 11 -4 18 -9 14 -5 -3 -12 -1 -16 5 -10 16 -174 8 -185 -9 -7
-12 -11 -12 -24 -2 -9 8 -21 9 -30 4 -14 -8 -185 -1 -322 12 -49 5 -73 4 -78
-4z m424 -21 c0 -5 -4 -10 -10 -10 -5 0 -10 -12 -11 -27 l-1 -28 -7 25 c-4 14
-2 30 4 37 12 15 25 16 25 3z m120 6 c0 -3 -4 -8 -10 -11 -5 -3 -10 -1 -10 4
0 6 5 11 10 11 6 0 10 -2 10 -4z"/>
<path d="M5420 9113 c-28 -6 -40 -19 -40 -47 0 -18 1 -18 27 -1 18 12 28 14
31 7 5 -15 42 -16 42 -1 0 15 -20 49 -28 48 -4 -1 -18 -4 -32 -6z"/>
<path d="M8710 9081 c0 -12 -4 -21 -10 -21 -5 0 -10 6 -10 13 0 8 -3 7 -10 -3
-12 -19 3 -28 41 -22 24 4 29 9 27 26 -4 28 -38 35 -38 7z"/>
<path d="M4883 9083 c-7 -2 -13 -16 -13 -30 0 -20 4 -24 23 -21 16 2 22 10 22
27 0 25 -11 33 -32 24z"/>
<path d="M4029 9017 c-16 -12 -15 -14 5 -33 26 -23 66 -29 66 -9 0 16 -25 26
-46 18 -13 -5 -15 -2 -9 15 7 25 6 26 -16 9z"/>
<path d="M5397 9009 c-3 -10 2 -20 10 -23 21 -8 21 -8 32 13 9 16 7 20 -13 23
-18 4 -26 0 -29 -13z"/>
<path d="M5008 8971 c-12 -14 -13 -21 -5 -24 7 -3 1 -13 -15 -26 -24 -20 -26
-25 -16 -49 7 -15 18 -32 25 -38 19 -16 5 -24 -44 -24 -34 0 -43 -4 -43 -18 0
-9 -10 -22 -22 -27 -21 -9 -23 -18 -26 -90 -7 -187 60 -392 217 -662 l54 -93
101 0 c101 0 130 -8 120 -35 -3 -7 7 -15 25 -18 18 -4 31 -13 31 -22 0 -9 9
-15 21 -15 18 0 19 2 9 15 -7 8 -9 15 -4 15 4 0 3 5 -4 12 -18 18 -15 28 9 28
13 0 18 4 13 12 -9 14 -13 62 -13 142 0 32 -4 63 -9 70 -16 20 -62 175 -56
190 3 8 -4 24 -15 35 -11 11 -24 33 -27 48 -4 16 -15 44 -26 63 -22 42 -22 50
-2 50 10 0 14 7 12 23 -2 16 -10 22 -28 22 -20 0 -30 10 -51 55 -37 77 -83
183 -93 213 -3 9 -12 17 -21 17 -9 0 -15 9 -15 24 0 17 -10 31 -30 43 -16 9
-30 23 -30 31 0 7 5 10 10 7 15 -9 12 15 -4 31 -19 19 -28 18 -48 -5z"/>
<path d="M8767 8983 c-13 -12 -7 -23 13 -23 13 0 18 5 14 15 -7 16 -17 19 -27
8z"/>
<path d="M5445 8894 c-4 -23 -2 -41 5 -48 16 -16 31 13 18 37 -7 13 -7 17 0
13 6 -4 10 2 9 14 -2 34 -24 22 -32 -16z"/>
<path d="M4080 8909 l-25 -7 23 -7 c17 -6 20 -10 11 -16 -17 -10 -20 -39 -4
-39 15 0 39 61 28 70 -5 4 -19 4 -33 -1z"/>
<path d="M8794 8903 c-16 -5 -5 -43 12 -43 8 0 14 2 14 4 0 2 3 11 6 19 5 15
-13 27 -32 20z"/>
<path d="M5505 8850 c3 -5 8 -10 11 -10 2 0 4 5 4 10 0 6 -5 10 -11 10 -5 0
-7 -4 -4 -10z"/>
<path d="M4080 8813 c0 -7 7 -10 15 -7 20 8 19 -5 -1 -27 -14 -16 -14 -18 5
-29 16 -8 28 -8 49 2 34 16 37 44 4 41 -17 -2 -22 2 -20 14 2 13 -4 18 -24 18
-16 1 -28 -4 -28 -12z"/>
<path d="M5451 8784 c-1 -17 6 -37 14 -44 8 -7 12 -16 9 -21 -7 -13 7 -11 39
4 36 16 34 27 -7 27 -29 0 -35 4 -44 33 l-10 32 -1 -31z"/>
<path d="M8696 8803 c-13 -14 -5 -33 14 -33 11 0 20 6 20 14 0 15 -24 28 -34
19z"/>
<path d="M8058 8782 c-20 -8 -58 -55 -58 -72 0 -6 -8 -19 -17 -28 -15 -16 -16
-15 -9 11 5 20 3 27 -8 27 -8 0 -16 7 -20 15 -3 8 -10 15 -16 15 -5 0 -10 -7
-10 -15 0 -8 7 -15 15 -15 18 0 20 -27 3 -32 -8 -3 -13 -25 -13 -60 0 -30 -5
-61 -11 -69 -6 -8 -14 -36 -18 -63 -3 -27 -15 -64 -27 -83 -20 -32 -20 -36 -5
-66 15 -31 16 -31 22 -9 4 12 13 22 20 22 8 0 22 9 31 20 10 11 23 20 30 20
17 0 17 27 1 34 -9 3 -8 8 5 16 9 6 17 20 17 30 0 10 5 22 10 25 6 3 10 17 10
30 0 12 7 25 15 29 8 3 15 17 15 32 0 15 9 41 20 59 11 17 22 49 25 71 2 21 9
40 15 42 5 2 10 8 10 13 0 10 -27 11 -52 1z"/>
<path d="M8724 8743 c2 -9 8 -19 14 -21 7 -2 12 -14 12 -27 0 -27 15 -40 53
-44 36 -3 37 30 1 54 -14 9 -34 25 -45 36 -24 24 -38 25 -35 2z"/>
<path d="M5482 8678 c-21 -21 -13 -37 25 -53 27 -11 34 -18 25 -24 -8 -4 -16
-28 -19 -52 -3 -33 -2 -40 6 -29 9 13 11 12 11 -3 0 -11 12 -22 30 -28 16 -6
27 -15 24 -20 -3 -5 0 -9 6 -9 6 0 8 -5 4 -12 -4 -6 -3 -8 4 -4 5 3 13 0 15
-6 3 -8 6 -6 6 5 1 9 -3 17 -9 17 -5 0 -10 5 -10 10 0 6 7 10 15 10 8 0 15 5
15 10 0 6 -6 10 -14 10 -8 0 -17 13 -21 30 -4 16 -14 34 -23 40 -11 6 -13 12
-6 17 15 11 -3 73 -22 73 -8 0 -17 7 -20 15 -7 18 -26 19 -42 3z"/>
<path d="M5225 8660 c3 -5 13 -10 21 -10 8 0 12 5 9 10 -3 6 -13 10 -21 10 -8
0 -12 -4 -9 -10z"/>
<path d="M8920 8576 c0 -9 5 -16 10 -16 6 0 10 4 10 9 0 6 -4 13 -10 16 -5 3
-10 -1 -10 -9z"/>
<path d="M7700 8509 c12 -9 11 -10 -7 -6 -21 5 -23 2 -22 -41 1 -26 3 -39 6
-29 7 25 23 21 23 -6 0 -13 -10 -34 -22 -46 -16 -18 -19 -27 -11 -40 7 -10 8
-36 3 -66 -4 -28 -4 -57 1 -66 4 -9 5 -58 2 -109 -5 -69 -3 -91 5 -86 8 5 12
0 12 -14 0 -11 -7 -23 -15 -26 -12 -5 -15 -20 -13 -66 2 -57 10 -79 22 -59 10
15 56 -12 62 -35 4 -14 16 -24 37 -28 19 -4 46 -23 68 -47 30 -33 42 -40 61
-36 13 3 32 -1 43 -9 17 -13 80 -14 460 -9 242 3 454 8 472 11 28 4 32 9 35
41 3 31 7 37 29 37 24 1 40 11 77 48 9 9 35 18 57 20 30 2 42 9 50 25 5 12 19
26 32 32 12 6 25 21 27 33 19 93 29 129 37 134 6 3 7 14 4 24 -3 10 1 25 10
33 22 23 31 77 14 88 -12 7 -12 10 -1 18 19 12 11 62 -12 75 -14 8 -20 8 -23
-2 -4 -10 -8 -10 -19 -1 -18 15 -18 29 2 43 12 9 13 17 5 39 -6 16 -16 25 -24
22 -13 -6 -57 37 -57 54 0 5 6 12 13 14 10 4 10 6 0 6 -7 1 -13 10 -13 22 l0
20 -30 -21 -30 -21 20 -21 c31 -34 26 -47 -11 -28 -21 12 -23 8 -10 -18 5 -9
15 -37 22 -61 7 -24 22 -53 33 -63 31 -28 28 -109 -7 -179 -15 -31 -27 -61
-27 -67 0 -6 -10 -30 -22 -53 -20 -39 -22 -40 -30 -20 -4 12 -23 28 -42 36
-48 20 -241 65 -279 65 -32 0 -32 0 21 35 28 20 52 40 52 45 0 6 -16 10 -35
10 -29 0 -33 3 -28 18 4 9 9 19 13 22 4 3 13 32 21 65 14 54 14 64 0 97 -9 21
-21 38 -28 38 -16 0 -43 -40 -43 -65 0 -12 -4 -25 -9 -31 -6 -5 -11 -20 -13
-34 -2 -14 -6 -29 -10 -35 -3 -5 -11 -28 -17 -51 -7 -27 -19 -44 -33 -50 -32
-13 -216 -6 -289 10 -24 5 -45 4 -58 -3 -19 -10 -21 -9 -21 13 0 17 -7 26 -27
30 -16 5 -29 3 -33 -5 -4 -6 -13 -8 -20 -4 -7 4 -16 2 -20 -5 -7 -11 -12 -10
-25 3 -9 10 -21 17 -26 17 -5 0 -11 11 -15 25 -7 29 -28 48 -55 50 -14 1 -18
-5 -17 -24 1 -14 7 -34 14 -45 7 -10 10 -33 7 -51 -4 -25 0 -37 19 -56 29 -29
41 -56 27 -65 -27 -16 6 -24 108 -27 61 -2 117 -8 125 -14 18 -14 76 -24 82
-14 6 10 69 22 145 27 32 2 62 11 73 20 17 16 18 15 18 -29 l0 -45 -62 -1
c-59 0 -177 -16 -308 -40 -73 -14 -92 -11 -111 17 -12 17 -18 20 -21 11 -3 -8
-17 -13 -35 -11 -19 1 -33 -3 -36 -11 -3 -8 -24 -24 -47 -36 -23 -12 -38 -16
-34 -9 4 7 -9 3 -29 -9 -48 -29 -118 -15 -156 31 -7 8 -18 13 -25 10 -14 -5
-9 73 5 82 5 3 9 24 9 47 0 23 5 58 9 77 26 100 45 156 57 166 8 6 14 19 14
28 0 13 -11 16 -54 16 -62 0 -94 9 -76 20 15 9 15 89 1 103 -7 7 -7 15 0 24
16 18 2 63 -19 63 -15 0 -15 -2 -2 -11z m570 -403 c0 -8 -7 -16 -15 -20 -17
-6 -18 -4 -9 18 8 20 24 21 24 2z m350 -26 c0 -5 -7 -10 -15 -10 -8 0 -15 5
-15 10 0 6 7 10 15 10 8 0 15 -4 15 -10z"/>
<path d="M5566 8433 c-10 -10 4 -22 19 -16 9 3 15 -1 15 -11 0 -10 -8 -16 -21
-16 -17 0 -20 -5 -16 -21 3 -12 0 -22 -9 -26 -8 -3 -14 -18 -14 -33 0 -20 6
-29 22 -34 21 -5 21 -7 7 -21 -8 -8 -35 -19 -60 -23 -60 -10 -61 -38 -3 -58
38 -13 46 -12 85 6 l44 19 9 -29 c11 -37 42 -40 48 -5 3 14 1 25 -3 25 -5 0
-9 7 -9 15 0 9 -9 15 -21 15 -12 0 -23 8 -26 20 -3 11 -11 20 -18 20 -24 0
-25 29 -2 32 29 4 37 48 9 48 -29 0 -34 12 -12 27 29 20 25 47 -9 60 -17 6
-32 8 -35 6z m29 -223 c3 -5 1 -10 -4 -10 -6 0 -11 5 -11 10 0 6 2 10 4 10 3
0 8 -4 11 -10z"/>
<path d="M5350 8410 c0 -19 11 -26 23 -14 8 8 -3 34 -14 34 -5 0 -9 -9 -9 -20z"/>
<path d="M5510 8270 c0 -5 5 -10 10 -10 6 0 10 5 10 10 0 6 -4 10 -10 10 -5 0
-10 -4 -10 -10z"/>
<path d="M12495 8271 c3 -5 1 -12 -5 -16 -20 -12 -10 -35 16 -35 23 0 25 -3
19 -30 -7 -30 -1 -35 29 -24 24 9 19 51 -9 76 -13 11 -22 25 -19 30 3 4 -4 8
-16 8 -12 0 -19 -4 -15 -9z"/>
<path d="M8276 8182 c-3 -5 1 -9 9 -9 8 0 12 4 9 9 -3 4 -7 8 -9 8 -2 0 -6 -4
-9 -8z"/>
<path d="M11489 8173 c-1 -4 -1 -12 0 -17 1 -5 -12 -20 -29 -34 -35 -29 -38
-42 -10 -42 23 0 63 37 65 60 1 16 -24 48 -26 33z"/>
<path d="M5600 8145 c0 -8 9 -15 20 -15 11 0 20 7 20 15 0 8 -9 15 -20 15 -11
0 -20 -7 -20 -15z"/>
<path d="M5625 8115 c-16 -7 -23 -14 -15 -14 13 -1 13 -2 0 -11 -11 -7 -11
-10 -2 -10 14 0 58 37 51 44 -2 2 -17 -2 -34 -9z"/>
<path d="M5637 8073 c-4 -3 -7 -21 -7 -40 0 -23 5 -33 15 -33 8 0 15 5 15 11
0 5 4 7 10 4 5 -3 15 6 22 20 10 22 9 28 -3 36 -17 10 -43 12 -52 2z"/>
<path d="M12308 8013 c7 -3 16 -2 19 1 4 3 -2 6 -13 5 -11 0 -14 -3 -6 -6z"/>
<path d="M5653 7964 c3 -19 0 -28 -12 -31 -9 -2 -17 -16 -18 -34 -2 -24 2 -29
20 -30 17 -1 18 -2 5 -6 -23 -6 -22 -12 3 -43 11 -14 18 -19 14 -12 -3 6 -1
12 4 12 6 0 11 -4 11 -10 0 -5 9 -10 20 -10 11 0 20 -4 20 -10 0 -5 5 -10 10
-10 6 0 10 7 10 15 0 8 5 15 10 15 6 0 10 5 10 11 0 6 -9 8 -22 4 -17 -6 -20
-4 -15 9 4 9 10 23 13 31 4 10 0 15 -10 15 -8 0 -20 10 -27 21 -13 25 1 39 37
39 13 0 24 8 27 20 4 16 0 20 -19 20 -14 0 -24 -6 -24 -14 0 -18 -36 -10 -44
10 -10 25 -29 15 -23 -12z"/>
<path d="M11427 7974 c5 -14 3 -16 -13 -10 -12 5 -16 4 -9 -3 13 -13 67 -2 62
13 -2 6 -13 12 -25 14 -17 3 -20 0 -15 -14z"/>
<path d="M11440 7915 c0 -9 6 -12 15 -9 8 4 15 7 15 9 0 2 -7 5 -15 9 -9 3
-15 0 -15 -9z"/>
<path d="M12130 7920 c0 -5 5 -10 10 -10 6 0 10 5 10 10 0 6 -4 10 -10 10 -5
0 -10 -4 -10 -10z"/>
<path d="M12127 7860 c-3 -10 1 -24 7 -29 10 -8 11 -3 8 19 -5 35 -8 37 -15
10z"/>
<path d="M11774 7807 c-20 -11 -22 -37 -4 -37 10 0 34 39 28 45 -2 2 -12 -2
-24 -8z"/>
<path d="M5471 7784 c-7 -8 -11 -18 -8 -21 9 -9 48 8 44 20 -5 17 -21 18 -36
1z"/>
<path d="M12166 7778 c3 -4 -3 -11 -13 -15 -34 -13 -48 -33 -35 -53 9 -14 7
-21 -7 -34 -10 -9 -21 -13 -24 -9 -4 3 -7 1 -7 -5 0 -7 -5 -12 -11 -12 -5 0
-7 5 -4 10 8 13 0 13 -23 1 -9 -6 -35 -13 -57 -17 -32 -5 -36 -8 -20 -14 17
-6 70 -7 152 -1 16 1 21 6 17 16 -4 8 -2 15 4 15 6 0 12 -5 14 -12 2 -6 10 -8
16 -4 15 9 16 46 1 46 -6 0 -3 7 5 16 19 18 21 44 4 44 -9 0 -9 3 0 12 16 16
15 25 -3 25 -8 0 -12 -4 -9 -9z"/>
<path d="M11732 7758 c-16 -16 -15 -37 3 -44 8 -4 12 -10 9 -15 -3 -5 -1 -9 5
-9 5 0 12 6 14 13 3 7 6 4 6 -7 1 -15 4 -16 15 -7 8 7 12 21 9 31 -3 13 0 20
8 20 20 0 -2 17 -32 23 -14 4 -31 1 -37 -5z"/>
<path d="M5500 7745 c0 -9 -4 -13 -10 -10 -5 3 -10 -1 -10 -9 0 -9 -5 -16 -11
-16 -5 0 -7 -6 -3 -12 11 -18 13 -51 3 -64 -15 -19 2 -54 26 -54 19 0 25 8 34
46 13 49 8 66 -14 57 -9 -3 -15 1 -15 11 0 9 5 16 10 16 6 0 10 9 10 19 0 11
-4 23 -10 26 -5 3 -10 -1 -10 -10z"/>
<path d="M5620 7750 c0 -5 5 -10 11 -10 5 0 7 5 4 10 -3 6 -8 10 -11 10 -2 0
-4 -4 -4 -10z"/>
<path d="M5740 7730 c0 -13 -8 -20 -27 -22 -14 -2 -28 -8 -30 -15 -3 -8 6 -10
30 -6 34 5 34 4 29 -23 l-5 -29 22 28 c13 15 31 27 42 27 22 0 34 22 26 44 -7
19 -45 9 -50 -13 -4 -15 -5 -15 -6 0 -2 25 -31 33 -31 9z"/>
<path d="M11723 7675 c4 -9 7 -25 7 -36 0 -12 7 -19 19 -19 11 0 23 -4 26 -10
8 -14 42 -13 51 2 5 8 0 9 -17 5 -21 -5 -19 -2 11 23 22 19 29 30 20 31 -8 0
-28 2 -45 3 -16 1 -41 6 -54 10 -20 7 -23 6 -18 -9z"/>
<path d="M5240 7589 c0 -5 9 -9 20 -9 11 0 20 2 20 4 0 2 -9 6 -20 9 -11 3
-20 1 -20 -4z"/>
<path d="M5224 7548 c3 -26 13 -25 39 3 17 18 17 19 -13 19 -25 0 -29 -3 -26
-22z"/>
<path d="M5520 7561 c0 -5 6 -11 13 -13 17 -7 38 2 31 13 -7 12 -44 12 -44 0z"/>
<path d="M5290 7530 c-13 -8 -12 -10 3 -10 9 0 17 5 17 10 0 12 -1 12 -20 0z"/>
<path d="M5511 7521 c-9 -6 -11 -16 -6 -31 7 -21 8 -21 17 -6 13 24 6 48 -11
37z"/>
<path d="M5570 7475 c0 -13 12 -17 36 -14 4 0 11 -5 16 -13 7 -9 8 -8 4 5 -3
10 -6 23 -6 28 0 5 -11 9 -25 9 -16 0 -25 -6 -25 -15z"/>
<path d="M5540 7420 c0 -11 5 -20 10 -20 17 0 11 -18 -7 -23 -17 -4 -17 -5 0
-6 10 0 15 -6 12 -12 -4 -6 2 -5 13 2 17 11 19 16 9 28 -7 8 -7 12 -2 9 12 -7
52 19 43 28 -3 3 -22 7 -42 10 -31 4 -36 1 -36 -16z"/>
<path d="M4667 7399 c7 -7 15 -10 18 -7 3 3 -2 9 -12 12 -14 6 -15 5 -6 -5z"/>
<path d="M4684 7324 c3 -9 6 -20 6 -25 0 -5 9 -9 21 -9 11 0 29 -5 40 -11 22
-11 119 5 119 21 0 12 -55 20 -86 11 -30 -8 -84 5 -84 20 0 5 -5 9 -11 9 -6 0
-8 -7 -5 -16z"/>
<path d="M4880 7324 c0 -8 5 -12 10 -9 6 3 10 10 10 16 0 5 -4 9 -10 9 -5 0
-10 -7 -10 -16z"/>
<path d="M8241 7250 c-54 -13 -79 -30 -74 -50 4 -15 -4 -21 -36 -30 -23 -6
-41 -15 -41 -19 0 -5 -13 -11 -30 -14 -18 -4 -30 -13 -30 -22 0 -8 -6 -15 -14
-15 -16 0 -39 -80 -30 -107 3 -10 2 -14 -3 -8 -4 6 -24 12 -44 14 -41 3 -53
-13 -43 -55 5 -18 2 -24 -10 -24 -9 0 -19 7 -22 15 -9 22 -21 10 -28 -28 -5
-27 -20 -43 -71 -80 -58 -42 -65 -51 -65 -80 0 -21 -8 -41 -20 -52 -11 -10
-17 -22 -13 -28 4 -6 6 -38 6 -71 -1 -72 19 -111 97 -195 27 -30 50 -60 50
-68 0 -7 8 -17 17 -20 20 -8 63 -52 63 -64 0 -5 11 -11 25 -15 14 -3 25 -12
25 -20 0 -8 5 -14 10 -14 6 0 10 -7 10 -15 0 -8 7 -15 15 -15 8 0 15 -7 15
-16 0 -10 6 -14 15 -10 8 3 15 0 15 -7 0 -8 17 -12 52 -11 29 1 60 -2 68 -7
13 -7 12 -8 -2 -9 -29 0 -25 -73 5 -87 57 -27 119 -35 257 -34 156 1 194 4
340 26 52 8 130 19 173 25 43 5 93 16 112 24 31 13 35 19 35 51 0 21 9 49 21
66 14 21 17 29 7 30 -7 0 -3 4 10 9 25 10 25 11 13 62 -8 36 -8 37 23 40 28 3
32 7 39 48 5 25 10 55 13 67 2 12 15 34 27 50 19 22 23 36 19 66 -3 29 -1 37
12 37 19 0 20 19 4 55 -15 33 3 69 44 86 19 8 25 15 18 19 -7 5 -2 10 14 14
28 7 36 26 10 26 -8 0 -12 5 -9 10 21 34 -36 104 -75 93 -12 -3 -12 -2 -2 5
19 13 -12 36 -42 30 -20 -4 -25 0 -30 24 -4 20 -11 28 -26 28 -11 0 -20 4 -20
9 0 5 -11 12 -25 15 -26 7 -76 51 -68 60 3 3 0 13 -7 21 -7 9 -13 36 -13 61 0
43 -18 61 -31 32 -3 -7 -4 2 -3 20 3 22 0 29 -7 22 -12 -12 -29 -13 -22 -1 6
9 -122 23 -164 17 -14 -2 -35 -4 -48 -5 -17 -1 -24 -9 -28 -31 -4 -16 -9 -30
-11 -30 -10 0 -32 28 -26 34 4 3 1 6 -5 6 -7 0 -12 -5 -12 -10 0 -16 -51 -33
-64 -20 -16 16 -66 12 -66 -5 0 -8 -6 -15 -14 -15 -8 0 -17 -6 -20 -12 -5 -10
-7 -10 -12 0 -8 17 -44 15 -44 -3 0 -8 -5 -15 -11 -15 -6 0 -9 7 -5 15 3 8 1
15 -4 15 -6 0 -10 -4 -10 -10 0 -5 -4 -10 -10 -10 -5 0 -10 7 -10 15 0 9 -6
12 -15 9 -8 -4 -13 -9 -11 -13 2 -3 -2 -12 -10 -19 -12 -11 -14 -9 -14 8 0 24
-6 25 -26 5 -9 -8 -29 -15 -45 -15 -27 0 -29 3 -29 36 0 23 4 33 11 28 8 -4 9
0 4 15 -5 15 -2 21 9 21 9 0 16 7 16 15 0 16 0 16 -49 5z m-36 -50 c-3 -5 -1
-10 4 -10 6 0 11 -8 11 -19 0 -14 -6 -17 -23 -14 -19 4 -23 10 -19 29 2 13 11
24 19 24 8 0 11 -4 8 -10z m775 -14 c0 -2 -7 -6 -15 -10 -8 -3 -15 -1 -15 4 0
6 7 10 15 10 8 0 15 -2 15 -4z m-93 -12 c-3 -3 -12 -4 -19 -1 -8 3 -5 6 6 6
11 1 17 -2 13 -5z m-267 -44 c0 -5 -4 -10 -9 -10 -6 0 -13 5 -16 10 -3 6 1 10
9 10 9 0 16 -4 16 -10z m-130 -40 c0 -5 -5 -10 -11 -10 -5 0 -7 5 -4 10 3 6 8
10 11 10 2 0 4 -4 4 -10z m-435 -50 c3 -5 1 -10 -4 -10 -6 0 -11 5 -11 10 0 6
2 10 4 10 3 0 8 -4 11 -10z m1100 -80 c3 -5 1 -10 -4 -10 -6 0 -11 5 -11 10 0
6 2 10 4 10 3 0 8 -4 11 -10z m-45 -270 c0 -17 -5 -25 -12 -22 -5 1 -8 -4 -8
-11 0 -8 -8 -29 -17 -48 -10 -19 -27 -63 -39 -99 -12 -36 -27 -64 -33 -62 -6
1 -11 -2 -11 -8 0 -5 -3 -9 -7 -9 -30 5 -53 -3 -53 -18 0 -15 -2 -14 -15 3
-13 16 -14 16 -9 2 3 -10 1 -18 -5 -18 -6 0 -11 7 -11 15 0 8 -9 15 -20 15
-13 0 -18 -5 -14 -15 5 -12 -3 -15 -32 -16 -99 -3 -180 -13 -207 -24 -9 -4
-27 -5 -40 -1 -30 7 -127 -8 -136 -22 -7 -12 -51 -12 -51 0 0 11 -68 10 -72
-1 -1 -5 -21 -13 -42 -17 -31 -5 -38 -4 -32 7 4 8 1 6 -7 -3 -17 -22 -40 -23
-57 -3 -9 11 -17 12 -30 5 -10 -6 -33 -10 -50 -10 -17 0 -40 -5 -51 -10 -24
-13 -69 14 -69 42 0 11 -4 16 -11 13 -9 -6 -44 30 -44 46 0 4 -21 27 -47 53
-27 26 -48 50 -48 54 0 4 43 7 96 7 57 1 98 5 102 12 4 6 46 11 102 12 118 3
142 4 155 13 16 10 59 13 73 4 7 -4 18 -3 25 3 7 5 50 11 96 13 52 1 89 7 97
15 7 7 35 13 63 13 28 0 51 4 51 9 0 5 26 11 58 14 155 14 278 32 284 41 4 6
8 8 8 4 0 -3 12 -3 28 2 37 11 42 11 42 0z m-140 -450 c0 -5 -2 -10 -4 -10 -3
0 -8 5 -11 10 -3 6 -1 10 4 10 6 0 11 -4 11 -10z m-565 -72 c-9 -6 -19 -7 -22
-4 -4 3 -1 6 6 6 7 0 9 4 6 10 -4 6 1 7 11 3 15 -6 15 -7 -1 -15z m55 6 c0 -2
-7 -4 -15 -4 -8 0 -15 4 -15 10 0 5 7 7 15 4 8 -4 15 -8 15 -10z"/>
<path d="M5930 7160 c0 -5 5 -10 10 -10 6 0 10 5 10 10 0 6 -4 10 -10 10 -5 0
-10 -4 -10 -10z"/>
<path d="M5950 7120 c0 -5 5 -10 10 -10 6 0 10 5 10 10 0 6 -4 10 -10 10 -5 0
-10 -4 -10 -10z"/>
<path d="M5440 7069 c0 -5 5 -7 10 -4 6 3 10 8 10 11 0 2 -4 4 -10 4 -5 0 -10
-5 -10 -11z"/>
<path d="M7940 7060 c-8 -5 -10 -10 -5 -10 6 0 17 5 25 10 8 5 11 10 5 10 -5
0 -17 -5 -25 -10z"/>
<path d="M7263 7031 c-7 -12 -13 -41 -13 -66 l0 -46 63 3 62 3 0 60 0 60 -50
3 c-41 2 -52 -1 -62 -17z"/>
<path d="M5446 7031 c-4 -7 -5 -15 -2 -18 9 -9 19 4 14 18 -4 11 -6 11 -12 0z"/>
<path d="M5472 6984 c9 -3 19 -13 22 -22 3 -12 4 -12 3 3 -1 12 -10 21 -22 22
-15 1 -15 0 -3 -3z"/>
<path d="M5150 6900 c0 -5 5 -10 10 -10 6 0 10 5 10 10 0 6 -4 10 -10 10 -5 0
-10 -4 -10 -10z"/>
<path d="M5445 6860 c-4 -13 -15 -20 -31 -20 -39 0 -63 -17 -57 -40 6 -23 -8
-26 -36 -8 -15 9 -23 9 -35 -1 -22 -18 -20 -24 9 -37 20 -10 29 -8 56 11 17
13 36 22 42 19 13 -4 67 41 67 56 0 4 3 15 6 24 3 9 1 16 -4 16 -6 0 -14 -9
-17 -20z"/>
<path d="M5100 6770 c0 -5 7 -10 15 -10 8 0 15 -4 15 -9 0 -5 8 -11 18 -15 9
-3 23 -9 30 -12 7 -3 12 1 12 9 0 9 10 18 23 20 13 2 8 4 -13 4 -19 1 -48 6
-63 12 -35 13 -37 14 -37 1z"/>
<path d="M9140 6293 c0 -5 7 -17 15 -27 15 -20 20 -10 9 18 -6 16 -24 22 -24
9z"/>
<path d="M8035 6111 c-3 -6 -3 -11 2 -12 46 -5 56 -7 63 -18 5 -9 9 -7 13 8 4
17 1 21 -18 21 -13 0 -30 3 -38 6 -8 3 -18 1 -22 -5z"/>
<path d="M10358 5933 c7 -3 16 -2 19 1 4 3 -2 6 -13 5 -11 0 -14 -3 -6 -6z"/>
<path d="M10336 5911 c-4 -7 -5 -15 -2 -18 9 -9 19 4 14 18 -4 11 -6 11 -12 0z"/>
<path d="M8061 5185 c30 -16 41 -37 33 -60 -7 -17 13 -20 36 -5 9 5 19 5 27
-1 7 -6 17 -8 23 -4 5 3 10 -1 10 -9 0 -9 5 -16 10 -16 6 0 10 13 10 28 0 26
-2 28 -35 24 -20 -2 -35 0 -35 6 0 6 -8 8 -19 5 -13 -3 -20 2 -25 21 -5 20
-13 26 -34 26 l-27 -1 26 -14z"/>
<path d="M8028 5163 c7 -3 16 -2 19 1 4 3 -2 6 -13 5 -11 0 -14 -3 -6 -6z"/>
<path d="M8071 5154 c0 -11 3 -14 6 -6 3 7 2 16 -1 19 -3 4 -6 -2 -5 -13z"/>
<path d="M8220 5142 c0 -4 14 -13 30 -19 17 -6 30 -18 30 -26 0 -19 22 -27 49
-20 25 6 28 33 4 33 -16 1 -16 2 1 15 18 14 16 15 -28 12 -26 -1 -50 1 -52 5
-7 10 -34 10 -34 0z"/>
<path d="M8376 5114 c-9 -25 -7 -34 8 -34 22 0 29 18 13 35 -13 13 -16 13 -21
-1z"/>
<path d="M8246 5095 c4 -8 8 -15 10 -15 2 0 4 7 4 15 0 8 -4 15 -10 15 -5 0
-7 -7 -4 -15z"/>
</g>
</svg>
